<svg width="457" height="145" viewBox="0 0 457 145" fill="none" xmlns="http://www.w3.org/2000/svg">
<mask id="path-1-outside-1_328_190" maskUnits="userSpaceOnUse" x="-1" y="41" width="458" height="74" fill="black">
<rect fill="white" x="-1" y="41" width="458" height="74"/>
<path d="M16.1 55H1V43H44.8V55H29.7V113H16.1V55ZM79.6852 43C84.3518 46.8 87.8185 51.9 90.0852 58.3C92.3518 64.7 93.4852 71.3 93.4852 78.1C93.4852 84.8333 92.3852 91.2333 90.1852 97.3C87.9852 103.367 84.4852 108.6 79.6852 113H59.0852C54.2852 108.6 50.7852 103.367 48.5852 97.3C46.3852 91.2333 45.2852 84.8333 45.2852 78.1C45.2852 71.3 46.4185 64.7 48.6852 58.3C50.9518 51.9 54.4185 46.8 59.0852 43H79.6852ZM65.7852 101.4H72.9852C74.6518 99.4667 76.0518 96.3333 77.1852 92C78.3852 87.6 78.9852 82.9667 78.9852 78.1C78.9852 73.2333 78.4185 68.6667 77.2852 64.4C76.1518 60.0667 74.7518 56.9333 73.0852 55H65.7852C64.1185 56.9333 62.6852 60.0667 61.4852 64.4C60.3518 68.6667 59.7852 73.2333 59.7852 78.1C59.7852 82.9667 60.3518 87.6 61.4852 92C62.6852 96.3333 64.1185 99.4667 65.7852 101.4ZM101.284 113V43H114.984V72.5H115.484L127.984 43H142.084L127.484 76.4L142.784 113H127.584L115.684 82.4H114.984V113H101.284ZM147.573 113V43H183.473V55H161.273V71.7H181.073V83.3H161.273V101.4H183.873V113H147.573ZM222.816 113L204.116 74.3L203.616 74.5L204.216 86.3V113H191.616V43H201.716L220.116 83.2L220.616 83L219.516 70.7V43H232.116V113H222.816ZM274.314 43C278.981 46.8 282.447 51.9 284.714 58.3C286.981 64.7 288.114 71.3 288.114 78.1C288.114 84.8333 287.014 91.2333 284.814 97.3C282.614 103.367 279.114 108.6 274.314 113H253.714C248.914 108.6 245.414 103.367 243.214 97.3C241.014 91.2333 239.914 84.8333 239.914 78.1C239.914 71.3 241.047 64.7 243.314 58.3C245.581 51.9 249.047 46.8 253.714 43H274.314ZM260.414 101.4H267.614C269.281 99.4667 270.681 96.3333 271.814 92C273.014 87.6 273.614 82.9667 273.614 78.1C273.614 73.2333 273.047 68.6667 271.914 64.4C270.781 60.0667 269.381 56.9333 267.714 55H260.414C258.747 56.9333 257.314 60.0667 256.114 64.4C254.981 68.6667 254.414 73.2333 254.414 78.1C254.414 82.9667 254.981 87.6 256.114 92C257.314 96.3333 258.747 99.4667 260.414 101.4ZM320.437 81H320.037H320.437L325.737 59.1L330.037 43H342.537L347.037 113H333.937L332.037 74.8H331.537L324.337 103H316.137L308.937 74.8H308.437L306.537 113H293.437L297.937 43H310.437L314.737 59.1L320.037 81H320.437ZM355.093 113V43H368.793V113H355.093ZM397.833 101.4H415.433V113H390.033C385.633 108.867 382.299 103.633 380.033 97.3C377.766 90.9667 376.633 84.4667 376.633 77.8C376.633 71.0667 377.899 64.6 380.433 58.4C382.966 52.2 386.733 47.0667 391.733 43H415.433V55H397.833C396.033 57.0667 394.466 60.4 393.133 65C391.866 69.6 391.233 74 391.233 78.2C391.233 82.4 391.866 86.8 393.133 91.4C394.466 96 396.033 99.3333 397.833 101.4ZM429.169 43H453.169V55H433.969L433.669 55.6L449.669 84.8C452.935 90.6667 454.569 95.1333 454.569 98.2C454.569 104.933 452.335 109.867 447.869 113H421.369V101.4H442.069L442.369 100.8L424.369 68.5C421.769 63.8333 420.469 60.0333 420.469 57.1C420.469 50.1667 423.369 45.4667 429.169 43Z"/>
</mask>
<path d="M16.1 55H1V43H44.8V55H29.7V113H16.1V55ZM79.6852 43C84.3518 46.8 87.8185 51.9 90.0852 58.3C92.3518 64.7 93.4852 71.3 93.4852 78.1C93.4852 84.8333 92.3852 91.2333 90.1852 97.3C87.9852 103.367 84.4852 108.6 79.6852 113H59.0852C54.2852 108.6 50.7852 103.367 48.5852 97.3C46.3852 91.2333 45.2852 84.8333 45.2852 78.1C45.2852 71.3 46.4185 64.7 48.6852 58.3C50.9518 51.9 54.4185 46.8 59.0852 43H79.6852ZM65.7852 101.4H72.9852C74.6518 99.4667 76.0518 96.3333 77.1852 92C78.3852 87.6 78.9852 82.9667 78.9852 78.1C78.9852 73.2333 78.4185 68.6667 77.2852 64.4C76.1518 60.0667 74.7518 56.9333 73.0852 55H65.7852C64.1185 56.9333 62.6852 60.0667 61.4852 64.4C60.3518 68.6667 59.7852 73.2333 59.7852 78.1C59.7852 82.9667 60.3518 87.6 61.4852 92C62.6852 96.3333 64.1185 99.4667 65.7852 101.4ZM101.284 113V43H114.984V72.5H115.484L127.984 43H142.084L127.484 76.4L142.784 113H127.584L115.684 82.4H114.984V113H101.284ZM147.573 113V43H183.473V55H161.273V71.7H181.073V83.3H161.273V101.4H183.873V113H147.573ZM222.816 113L204.116 74.3L203.616 74.5L204.216 86.3V113H191.616V43H201.716L220.116 83.2L220.616 83L219.516 70.7V43H232.116V113H222.816ZM274.314 43C278.981 46.8 282.447 51.9 284.714 58.3C286.981 64.7 288.114 71.3 288.114 78.1C288.114 84.8333 287.014 91.2333 284.814 97.3C282.614 103.367 279.114 108.6 274.314 113H253.714C248.914 108.6 245.414 103.367 243.214 97.3C241.014 91.2333 239.914 84.8333 239.914 78.1C239.914 71.3 241.047 64.7 243.314 58.3C245.581 51.9 249.047 46.8 253.714 43H274.314ZM260.414 101.4H267.614C269.281 99.4667 270.681 96.3333 271.814 92C273.014 87.6 273.614 82.9667 273.614 78.1C273.614 73.2333 273.047 68.6667 271.914 64.4C270.781 60.0667 269.381 56.9333 267.714 55H260.414C258.747 56.9333 257.314 60.0667 256.114 64.4C254.981 68.6667 254.414 73.2333 254.414 78.1C254.414 82.9667 254.981 87.6 256.114 92C257.314 96.3333 258.747 99.4667 260.414 101.4ZM320.437 81H320.037H320.437L325.737 59.1L330.037 43H342.537L347.037 113H333.937L332.037 74.8H331.537L324.337 103H316.137L308.937 74.8H308.437L306.537 113H293.437L297.937 43H310.437L314.737 59.1L320.037 81H320.437ZM355.093 113V43H368.793V113H355.093ZM397.833 101.4H415.433V113H390.033C385.633 108.867 382.299 103.633 380.033 97.3C377.766 90.9667 376.633 84.4667 376.633 77.8C376.633 71.0667 377.899 64.6 380.433 58.4C382.966 52.2 386.733 47.0667 391.733 43H415.433V55H397.833C396.033 57.0667 394.466 60.4 393.133 65C391.866 69.6 391.233 74 391.233 78.2C391.233 82.4 391.866 86.8 393.133 91.4C394.466 96 396.033 99.3333 397.833 101.4ZM429.169 43H453.169V55H433.969L433.669 55.6L449.669 84.8C452.935 90.6667 454.569 95.1333 454.569 98.2C454.569 104.933 452.335 109.867 447.869 113H421.369V101.4H442.069L442.369 100.8L424.369 68.5C421.769 63.8333 420.469 60.0333 420.469 57.1C420.469 50.1667 423.369 45.4667 429.169 43Z" fill="#7DF7DA"/>
<path d="M16.1 55H18.1V53H16.1V55ZM1 55H-1V57H1V55ZM1 43V41H-1V43H1ZM44.8 43H46.8V41H44.8V43ZM44.8 55V57H46.8V55H44.8ZM29.7 55V53H27.7V55H29.7ZM29.7 113V115H31.7V113H29.7ZM16.1 113H14.1V115H16.1V113ZM16.1 53H1V57H16.1V53ZM3 55V43H-1V55H3ZM1 45H44.8V41H1V45ZM42.8 43V55H46.8V43H42.8ZM44.8 53H29.7V57H44.8V53ZM27.7 55V113H31.7V55H27.7ZM29.7 111H16.1V115H29.7V111ZM18.1 113V55H14.1V113H18.1ZM79.6852 43L80.948 41.4491L80.3964 41H79.6852V43ZM90.0852 58.3L88.1999 58.9677L88.1999 58.9677L90.0852 58.3ZM90.1852 97.3L92.0653 97.9818L92.0653 97.9818L90.1852 97.3ZM79.6852 113V115H80.4631L81.0366 114.474L79.6852 113ZM59.0852 113L57.7337 114.474L58.3072 115H59.0852V113ZM48.6852 58.3L46.7999 57.6323L46.7999 57.6323L48.6852 58.3ZM59.0852 43V41H58.3739L57.8223 41.4491L59.0852 43ZM65.7852 101.4L64.2703 102.706L64.8687 103.4H65.7852V101.4ZM72.9852 101.4V103.4H73.9016L74.5 102.706L72.9852 101.4ZM77.1852 92L75.2556 91.4738L75.2529 91.4838L75.2502 91.4939L77.1852 92ZM77.2852 64.4L75.3502 64.9061L75.3522 64.9134L77.2852 64.4ZM73.0852 55L74.6 53.6941L74.0016 53H73.0852V55ZM65.7852 55V53H64.8687L64.2703 53.6941L65.7852 55ZM61.4852 64.4L59.5577 63.8662L59.5549 63.8764L59.5522 63.8866L61.4852 64.4ZM61.4852 92L59.5484 92.4989L59.5529 92.5164L59.5577 92.5338L61.4852 92ZM78.4223 44.5509C82.7692 48.0905 86.0397 52.8682 88.1999 58.9677L91.9704 57.6323C89.5973 50.9318 85.9344 45.5095 80.948 41.4491L78.4223 44.5509ZM88.1999 58.9677C90.3905 65.1529 91.4852 71.5271 91.4852 78.1H95.4852C95.4852 71.0729 94.3131 64.2471 91.9704 57.6323L88.1999 58.9677ZM91.4852 78.1C91.4852 84.611 90.4223 90.7795 88.305 96.6182L92.0653 97.9818C94.348 91.6872 95.4852 85.0556 95.4852 78.1H91.4852ZM88.305 96.6182C86.2158 102.379 82.8984 107.341 78.3337 111.526L81.0366 114.474C86.0719 109.859 89.7545 104.354 92.0653 97.9818L88.305 96.6182ZM79.6852 111H59.0852V115H79.6852V111ZM60.4366 111.526C55.8719 107.341 52.5545 102.379 50.4653 96.6182L46.705 97.9818C49.0158 104.354 52.6984 109.859 57.7337 114.474L60.4366 111.526ZM50.4653 96.6182C48.348 90.7795 47.2852 84.611 47.2852 78.1H43.2852C43.2852 85.0556 44.4223 91.6872 46.705 97.9818L50.4653 96.6182ZM47.2852 78.1C47.2852 71.5271 48.3798 65.1529 50.5704 58.9677L46.7999 57.6323C44.4572 64.2471 43.2852 71.0729 43.2852 78.1H47.2852ZM50.5704 58.9677C52.7307 52.8682 56.0011 48.0905 60.348 44.5509L57.8223 41.4491C52.8359 45.5095 49.173 50.9318 46.7999 57.6323L50.5704 58.9677ZM59.0852 45H79.6852V41H59.0852V45ZM65.7852 103.4H72.9852V99.4H65.7852V103.4ZM74.5 102.706C76.4637 100.428 77.9595 96.9437 79.1201 92.5061L75.2502 91.4939C74.1442 95.723 72.84 98.5053 71.4703 100.094L74.5 102.706ZM79.1147 92.5262C80.3645 87.9436 80.9852 83.1325 80.9852 78.1H76.9852C76.9852 82.8008 76.4058 87.2564 75.2556 91.4738L79.1147 92.5262ZM80.9852 78.1C80.9852 73.0775 80.4002 68.3369 79.2181 63.8866L75.3522 64.9134C76.4367 68.9965 76.9852 73.3891 76.9852 78.1H80.9852ZM79.2201 63.8939C78.0595 59.4563 76.5637 55.972 74.6 53.6941L71.5703 56.3059C72.94 57.8947 74.2442 60.677 75.3502 64.9061L79.2201 63.8939ZM73.0852 53H65.7852V57H73.0852V53ZM64.2703 53.6941C62.3158 55.9614 60.7853 59.4332 59.5577 63.8662L63.4126 64.9338C64.585 60.7001 65.9212 57.9053 67.3 56.3059L64.2703 53.6941ZM59.5522 63.8866C58.3701 68.3369 57.7852 73.0775 57.7852 78.1H61.7852C61.7852 73.3891 62.3336 68.9965 63.4181 64.9134L59.5522 63.8866ZM57.7852 78.1C57.7852 83.1231 58.3702 87.9248 59.5484 92.4989L63.4219 91.5011C62.3335 87.2752 61.7852 82.8103 61.7852 78.1H57.7852ZM59.5577 92.5338C60.7853 96.9668 62.3158 100.439 64.2703 102.706L67.3 100.094C65.9212 98.4947 64.585 95.6999 63.4126 91.4662L59.5577 92.5338ZM101.284 113H99.2844V115H101.284V113ZM101.284 43V41H99.2844V43H101.284ZM114.984 43H116.984V41H114.984V43ZM114.984 72.5H112.984V74.5H114.984V72.5ZM115.484 72.5V74.5H116.809L117.326 73.2803L115.484 72.5ZM127.984 43V41H126.66L126.143 42.2197L127.984 43ZM142.084 43L143.917 43.8011L145.141 41H142.084V43ZM127.484 76.4L125.652 75.5989L125.309 76.3824L125.639 77.1714L127.484 76.4ZM142.784 113V115H145.788L144.63 112.229L142.784 113ZM127.584 113L125.72 113.725L126.216 115H127.584V113ZM115.684 82.4L117.548 81.6751L117.053 80.4H115.684V82.4ZM114.984 82.4V80.4H112.984V82.4H114.984ZM114.984 113V115H116.984V113H114.984ZM103.284 113V43H99.2844V113H103.284ZM101.284 45H114.984V41H101.284V45ZM112.984 43V72.5H116.984V43H112.984ZM114.984 74.5H115.484V70.5H114.984V74.5ZM117.326 73.2803L129.826 43.7803L126.143 42.2197L113.643 71.7197L117.326 73.2803ZM127.984 45H142.084V41H127.984V45ZM140.252 42.1989L125.652 75.5989L129.317 77.2011L143.917 43.8011L140.252 42.1989ZM125.639 77.1714L140.939 113.771L144.63 112.229L129.33 75.6286L125.639 77.1714ZM142.784 111H127.584V115H142.784V111ZM129.448 112.275L117.548 81.6751L113.82 83.1249L125.72 113.725L129.448 112.275ZM115.684 80.4H114.984V84.4H115.684V80.4ZM112.984 82.4V113H116.984V82.4H112.984ZM114.984 111H101.284V115H114.984V111ZM147.573 113H145.573V115H147.573V113ZM147.573 43V41H145.573V43H147.573ZM183.473 43H185.473V41H183.473V43ZM183.473 55V57H185.473V55H183.473ZM161.273 55V53H159.273V55H161.273ZM161.273 71.7H159.273V73.7H161.273V71.7ZM181.073 71.7H183.073V69.7H181.073V71.7ZM181.073 83.3V85.3H183.073V83.3H181.073ZM161.273 83.3V81.3H159.273V83.3H161.273ZM161.273 101.4H159.273V103.4H161.273V101.4ZM183.873 101.4H185.873V99.4H183.873V101.4ZM183.873 113V115H185.873V113H183.873ZM149.573 113V43H145.573V113H149.573ZM147.573 45H183.473V41H147.573V45ZM181.473 43V55H185.473V43H181.473ZM183.473 53H161.273V57H183.473V53ZM159.273 55V71.7H163.273V55H159.273ZM161.273 73.7H181.073V69.7H161.273V73.7ZM179.073 71.7V83.3H183.073V71.7H179.073ZM181.073 81.3H161.273V85.3H181.073V81.3ZM159.273 83.3V101.4H163.273V83.3H159.273ZM161.273 103.4H183.873V99.4H161.273V103.4ZM181.873 101.4V113H185.873V101.4H181.873ZM183.873 111H147.573V115H183.873V111ZM222.816 113L221.016 113.87L221.562 115H222.816V113ZM204.116 74.3L205.917 73.4298L205.106 71.7502L203.374 72.443L204.116 74.3ZM203.616 74.5L202.874 72.643L201.546 73.1739L201.619 74.6016L203.616 74.5ZM204.216 86.3H206.216V86.2492L206.214 86.1984L204.216 86.3ZM204.216 113V115H206.216V113H204.216ZM191.616 113H189.616V115H191.616V113ZM191.616 43V41H189.616V43H191.616ZM201.716 43L203.535 42.1676L203.001 41H201.716V43ZM220.116 83.2L218.298 84.0324L219.091 85.7644L220.859 85.057L220.116 83.2ZM220.616 83L221.359 84.857L222.741 84.3042L222.608 82.8218L220.616 83ZM219.516 70.7H217.516V70.7893L217.524 70.8782L219.516 70.7ZM219.516 43V41H217.516V43H219.516ZM232.116 43H234.116V41H232.116V43ZM232.116 113V115H234.116V113H232.116ZM224.617 112.13L205.917 73.4298L202.316 75.1701L221.016 113.87L224.617 112.13ZM203.374 72.443L202.874 72.643L204.359 76.357L204.859 76.157L203.374 72.443ZM201.619 74.6016L202.219 86.4016L206.214 86.1984L205.614 74.3984L201.619 74.6016ZM202.216 86.3V113H206.216V86.3H202.216ZM204.216 111H191.616V115H204.216V111ZM193.616 113V43H189.616V113H193.616ZM191.616 45H201.716V41H191.616V45ZM199.898 43.8324L218.298 84.0324L221.935 82.3676L203.535 42.1676L199.898 43.8324ZM220.859 85.057L221.359 84.857L219.874 81.143L219.374 81.343L220.859 85.057ZM222.608 82.8218L221.508 70.5218L217.524 70.8782L218.624 83.1781L222.608 82.8218ZM221.516 70.7V43H217.516V70.7H221.516ZM219.516 45H232.116V41H219.516V45ZM230.116 43V113H234.116V43H230.116ZM232.116 111H222.816V115H232.116V111ZM274.314 43L275.577 41.4491L275.025 41H274.314V43ZM284.714 58.3L282.829 58.9677L282.829 58.9677L284.714 58.3ZM284.814 97.3L286.694 97.9818L286.694 97.9818L284.814 97.3ZM274.314 113V115H275.092L275.666 114.474L274.314 113ZM253.714 113L252.363 114.474L252.936 115H253.714V113ZM243.314 58.3L241.429 57.6323L241.429 57.6323L243.314 58.3ZM253.714 43V41H253.003L252.451 41.4491L253.714 43ZM260.414 101.4L258.899 102.706L259.498 103.4H260.414V101.4ZM267.614 101.4V103.4H268.531L269.129 102.706L267.614 101.4ZM271.814 92L269.885 91.4738L269.882 91.4838L269.879 91.4939L271.814 92ZM271.914 64.4L269.979 64.9061L269.981 64.9134L271.914 64.4ZM267.714 55L269.229 53.6941L268.631 53H267.714V55ZM260.414 55V53H259.498L258.899 53.6941L260.414 55ZM256.114 64.4L254.187 63.8662L254.184 63.8764L254.181 63.8866L256.114 64.4ZM256.114 92L254.177 92.4989L254.182 92.5164L254.187 92.5338L256.114 92ZM273.051 44.5509C277.398 48.0905 280.669 52.8682 282.829 58.9677L286.599 57.6323C284.226 50.9318 280.563 45.5095 275.577 41.4491L273.051 44.5509ZM282.829 58.9677C285.019 65.1529 286.114 71.5271 286.114 78.1H290.114C290.114 71.0729 288.942 64.2471 286.599 57.6323L282.829 58.9677ZM286.114 78.1C286.114 84.611 285.051 90.7795 282.934 96.6182L286.694 97.9818C288.977 91.6872 290.114 85.0556 290.114 78.1H286.114ZM282.934 96.6182C280.845 102.379 277.527 107.341 272.963 111.526L275.666 114.474C280.701 109.859 284.383 104.354 286.694 97.9818L282.934 96.6182ZM274.314 111H253.714V115H274.314V111ZM255.066 111.526C250.501 107.341 247.183 102.379 245.094 96.6182L241.334 97.9818C243.645 104.354 247.327 109.859 252.363 114.474L255.066 111.526ZM245.094 96.6182C242.977 90.7795 241.914 84.611 241.914 78.1H237.914C237.914 85.0556 239.051 91.6872 241.334 97.9818L245.094 96.6182ZM241.914 78.1C241.914 71.5271 243.009 65.1529 245.199 58.9677L241.429 57.6323C239.086 64.2471 237.914 71.0729 237.914 78.1H241.914ZM245.199 58.9677C247.36 52.8682 250.63 48.0905 254.977 44.5509L252.451 41.4491C247.465 45.5095 243.802 50.9318 241.429 57.6323L245.199 58.9677ZM253.714 45H274.314V41H253.714V45ZM260.414 103.4H267.614V99.4H260.414V103.4ZM269.129 102.706C271.093 100.428 272.588 96.9437 273.749 92.5061L269.879 91.4939C268.773 95.723 267.469 98.5053 266.099 100.094L269.129 102.706ZM273.744 92.5262C274.993 87.9436 275.614 83.1325 275.614 78.1H271.614C271.614 82.8008 271.035 87.2564 269.885 91.4738L273.744 92.5262ZM275.614 78.1C275.614 73.0775 275.029 68.3369 273.847 63.8866L269.981 64.9134C271.066 68.9965 271.614 73.3891 271.614 78.1H275.614ZM273.849 63.8939C272.688 59.4563 271.193 55.972 269.229 53.6941L266.199 56.3059C267.569 57.8947 268.873 60.677 269.979 64.9061L273.849 63.8939ZM267.714 53H260.414V57H267.714V53ZM258.899 53.6941C256.945 55.9614 255.414 59.4332 254.187 63.8662L258.042 64.9338C259.214 60.7001 260.55 57.9053 261.929 56.3059L258.899 53.6941ZM254.181 63.8866C252.999 68.3369 252.414 73.0775 252.414 78.1H256.414C256.414 73.3891 256.962 68.9965 258.047 64.9134L254.181 63.8866ZM252.414 78.1C252.414 83.1231 252.999 87.9248 254.177 92.4989L258.051 91.5011C256.962 87.2752 256.414 82.8103 256.414 78.1H252.414ZM254.187 92.5338C255.414 96.9668 256.945 100.439 258.899 102.706L261.929 100.094C260.55 98.4947 259.214 95.6999 258.042 91.4662L254.187 92.5338ZM320.437 81V83H322.01L322.381 81.4704L320.437 81ZM325.737 59.1L323.804 58.5839L323.798 58.6067L323.793 58.6296L325.737 59.1ZM330.037 43V41H328.501L328.104 42.4839L330.037 43ZM342.537 43L344.533 42.8717L344.412 41H342.537V43ZM347.037 113V115H349.169L349.033 112.872L347.037 113ZM333.937 113L331.939 113.099L332.034 115H333.937V113ZM332.037 74.8L334.034 74.7006L333.94 72.8H332.037V74.8ZM331.537 74.8V72.8H329.983L329.599 74.3052L331.537 74.8ZM324.337 103V105H325.89L326.275 103.495L324.337 103ZM316.137 103L314.199 103.495L314.583 105H316.137V103ZM308.937 74.8L310.875 74.3052L310.49 72.8H308.937V74.8ZM308.437 74.8V72.8H306.534L306.439 74.7006L308.437 74.8ZM306.537 113V115H308.44L308.534 113.099L306.537 113ZM293.437 113L291.441 112.872L291.304 115H293.437V113ZM297.937 43V41H296.061L295.941 42.8717L297.937 43ZM310.437 43L312.369 42.4839L311.973 41H310.437V43ZM314.737 59.1L316.681 58.6296L316.675 58.6067L316.669 58.5839L314.737 59.1ZM320.037 81L318.093 81.4704L318.463 83H320.037V81ZM320.437 79H320.037V83H320.437V79ZM320.037 83H320.437V79H320.037V83ZM322.381 81.4704L327.681 59.5704L323.793 58.6296L318.493 80.5296L322.381 81.4704ZM327.669 59.6161L331.969 43.5161L328.104 42.4839L323.804 58.5839L327.669 59.6161ZM330.037 45H342.537V41H330.037V45ZM340.541 43.1283L345.041 113.128L349.033 112.872L344.533 42.8717L340.541 43.1283ZM347.037 111H333.937V115H347.037V111ZM335.934 112.901L334.034 74.7006L330.039 74.8994L331.939 113.099L335.934 112.901ZM332.037 72.8H331.537V76.8H332.037V72.8ZM329.599 74.3052L322.399 102.505L326.275 103.495L333.475 75.2948L329.599 74.3052ZM324.337 101H316.137V105H324.337V101ZM318.075 102.505L310.875 74.3052L306.999 75.2948L314.199 103.495L318.075 102.505ZM308.937 72.8H308.437V76.8H308.937V72.8ZM306.439 74.7006L304.539 112.901L308.534 113.099L310.434 74.8994L306.439 74.7006ZM306.537 111H293.437V115H306.537V111ZM295.433 113.128L299.933 43.1283L295.941 42.8717L291.441 112.872L295.433 113.128ZM297.937 45H310.437V41H297.937V45ZM308.504 43.5161L312.804 59.6161L316.669 58.5839L312.369 42.4839L308.504 43.5161ZM312.793 59.5704L318.093 81.4704L321.981 80.5296L316.681 58.6296L312.793 59.5704ZM320.037 83H320.437V79H320.037V83ZM355.093 113H353.093V115H355.093V113ZM355.093 43V41H353.093V43H355.093ZM368.793 43H370.793V41H368.793V43ZM368.793 113V115H370.793V113H368.793ZM357.093 113V43H353.093V113H357.093ZM355.093 45H368.793V41H355.093V45ZM366.793 43V113H370.793V43H366.793ZM368.793 111H355.093V115H368.793V111ZM397.833 101.4L396.325 102.714L396.923 103.4H397.833V101.4ZM415.433 101.4H417.433V99.4H415.433V101.4ZM415.433 113V115H417.433V113H415.433ZM390.033 113L388.663 114.458L389.241 115H390.033V113ZM380.033 97.3L381.916 96.6261L380.033 97.3ZM380.433 58.4L382.284 59.1565L382.284 59.1565L380.433 58.4ZM391.733 43V41H391.022L390.471 41.4484L391.733 43ZM415.433 43H417.433V41H415.433V43ZM415.433 55V57H417.433V55H415.433ZM397.833 55V53H396.923L396.325 53.6864L397.833 55ZM393.133 65L391.212 64.4432L391.208 64.4561L391.205 64.469L393.133 65ZM393.133 91.4L391.205 91.931L391.208 91.9439L391.212 91.9568L393.133 91.4ZM397.833 103.4H415.433V99.4H397.833V103.4ZM413.433 101.4V113H417.433V101.4H413.433ZM415.433 111H390.033V115H415.433V111ZM391.402 111.542C387.258 107.65 384.088 102.696 381.916 96.6261L378.15 97.9739C380.511 104.571 384.007 110.084 388.663 114.458L391.402 111.542ZM381.916 96.6261C379.726 90.507 378.633 84.2349 378.633 77.8H374.633C374.633 84.6985 375.806 91.4263 378.15 97.9739L381.916 96.6261ZM378.633 77.8C378.633 71.3247 379.85 65.115 382.284 59.1565L378.581 57.6435C375.949 64.085 374.633 70.8087 374.633 77.8H378.633ZM382.284 59.1565C384.696 53.2541 388.265 48.3984 392.995 44.5516L390.471 41.4484C385.2 45.735 381.236 51.1459 378.581 57.6435L382.284 59.1565ZM391.733 45H415.433V41H391.733V45ZM413.433 43V55H417.433V43H413.433ZM415.433 53H397.833V57H415.433V53ZM396.325 53.6864C394.241 56.079 392.574 59.7425 391.212 64.4432L395.054 65.5568C396.358 61.0575 397.825 58.0543 399.341 56.3136L396.325 53.6864ZM391.205 64.469C389.897 69.219 389.233 73.7982 389.233 78.2H393.233C393.233 74.2018 393.836 69.981 395.061 65.531L391.205 64.469ZM389.233 78.2C389.233 82.6018 389.897 87.181 391.205 91.931L395.061 90.869C393.836 86.419 393.233 82.1982 393.233 78.2H389.233ZM391.212 91.9568C392.574 96.6575 394.241 100.321 396.325 102.714L399.341 100.086C397.825 98.3457 396.358 95.3425 395.054 90.8432L391.212 91.9568ZM429.169 43V41H428.761L428.386 41.1595L429.169 43ZM453.169 43H455.169V41H453.169V43ZM453.169 55V57H455.169V55H453.169ZM433.969 55V53H432.733L432.18 54.1056L433.969 55ZM433.669 55.6L431.88 54.7056L431.411 55.6425L431.915 56.5611L433.669 55.6ZM449.669 84.8L447.915 85.7611L447.921 85.773L449.669 84.8ZM447.869 113V115H448.5L449.017 114.637L447.869 113ZM421.369 113H419.369V115H421.369V113ZM421.369 101.4V99.4H419.369V101.4H421.369ZM442.069 101.4V103.4H443.305L443.858 102.294L442.069 101.4ZM442.369 100.8L444.158 101.694L444.63 100.749L444.116 99.8264L442.369 100.8ZM424.369 68.5L422.622 69.4734L422.622 69.4736L424.369 68.5ZM429.169 45H453.169V41H429.169V45ZM451.169 43V55H455.169V43H451.169ZM453.169 53H433.969V57H453.169V53ZM432.18 54.1056L431.88 54.7056L435.458 56.4944L435.758 55.8944L432.18 54.1056ZM431.915 56.5611L447.915 85.7611L451.423 83.8389L435.423 54.6389L431.915 56.5611ZM447.921 85.773C451.176 91.6173 452.569 95.69 452.569 98.2H456.569C456.569 94.5766 454.695 89.716 451.416 83.827L447.921 85.773ZM452.569 98.2C452.569 104.454 450.526 108.693 446.72 111.363L449.017 114.637C454.145 111.041 456.569 105.413 456.569 98.2H452.569ZM447.869 111H421.369V115H447.869V111ZM423.369 113V101.4H419.369V113H423.369ZM421.369 103.4H442.069V99.4H421.369V103.4ZM443.858 102.294L444.158 101.694L440.58 99.9056L440.28 100.506L443.858 102.294ZM444.116 99.8264L426.116 67.5264L422.622 69.4736L440.622 101.774L444.116 99.8264ZM426.116 67.5266C423.566 62.9497 422.469 59.5151 422.469 57.1H418.469C418.469 60.5516 419.972 64.7169 422.622 69.4734L426.116 67.5266ZM422.469 57.1C422.469 53.9102 423.135 51.3881 424.346 49.4252C425.549 47.4757 427.377 45.9356 429.951 44.8405L428.386 41.1595C425.161 42.5311 422.639 44.5743 420.942 47.3248C419.253 50.0619 418.469 53.3565 418.469 57.1H422.469Z" fill="black" mask="url(#path-1-outside-1_328_190)"/>
<mask id="path-3-outside-2_328_190" maskUnits="userSpaceOnUse" x="-1" y="36" width="458" height="74" fill="black">
<rect fill="white" x="-1" y="36" width="458" height="74"/>
<path d="M16.1 50H1V38H44.8V50H29.7V108H16.1V50ZM79.6852 38C84.3518 41.8 87.8185 46.9 90.0852 53.3C92.3518 59.7 93.4852 66.3 93.4852 73.1C93.4852 79.8333 92.3852 86.2333 90.1852 92.3C87.9852 98.3667 84.4852 103.6 79.6852 108H59.0852C54.2852 103.6 50.7852 98.3667 48.5852 92.3C46.3852 86.2333 45.2852 79.8333 45.2852 73.1C45.2852 66.3 46.4185 59.7 48.6852 53.3C50.9518 46.9 54.4185 41.8 59.0852 38H79.6852ZM65.7852 96.4H72.9852C74.6518 94.4667 76.0518 91.3333 77.1852 87C78.3852 82.6 78.9852 77.9667 78.9852 73.1C78.9852 68.2333 78.4185 63.6667 77.2852 59.4C76.1518 55.0667 74.7518 51.9333 73.0852 50H65.7852C64.1185 51.9333 62.6852 55.0667 61.4852 59.4C60.3518 63.6667 59.7852 68.2333 59.7852 73.1C59.7852 77.9667 60.3518 82.6 61.4852 87C62.6852 91.3333 64.1185 94.4667 65.7852 96.4ZM101.284 108V38H114.984V67.5H115.484L127.984 38H142.084L127.484 71.4L142.784 108H127.584L115.684 77.4H114.984V108H101.284ZM147.573 108V38H183.473V50H161.273V66.7H181.073V78.3H161.273V96.4H183.873V108H147.573ZM222.816 108L204.116 69.3L203.616 69.5L204.216 81.3V108H191.616V38H201.716L220.116 78.2L220.616 78L219.516 65.7V38H232.116V108H222.816ZM274.314 38C278.981 41.8 282.447 46.9 284.714 53.3C286.981 59.7 288.114 66.3 288.114 73.1C288.114 79.8333 287.014 86.2333 284.814 92.3C282.614 98.3667 279.114 103.6 274.314 108H253.714C248.914 103.6 245.414 98.3667 243.214 92.3C241.014 86.2333 239.914 79.8333 239.914 73.1C239.914 66.3 241.047 59.7 243.314 53.3C245.581 46.9 249.047 41.8 253.714 38H274.314ZM260.414 96.4H267.614C269.281 94.4667 270.681 91.3333 271.814 87C273.014 82.6 273.614 77.9667 273.614 73.1C273.614 68.2333 273.047 63.6667 271.914 59.4C270.781 55.0667 269.381 51.9333 267.714 50H260.414C258.747 51.9333 257.314 55.0667 256.114 59.4C254.981 63.6667 254.414 68.2333 254.414 73.1C254.414 77.9667 254.981 82.6 256.114 87C257.314 91.3333 258.747 94.4667 260.414 96.4ZM320.437 76H320.037H320.437L325.737 54.1L330.037 38H342.537L347.037 108H333.937L332.037 69.8H331.537L324.337 98H316.137L308.937 69.8H308.437L306.537 108H293.437L297.937 38H310.437L314.737 54.1L320.037 76H320.437ZM355.093 108V38H368.793V108H355.093ZM397.833 96.4H415.433V108H390.033C385.633 103.867 382.299 98.6333 380.033 92.3C377.766 85.9667 376.633 79.4667 376.633 72.8C376.633 66.0667 377.899 59.6 380.433 53.4C382.966 47.2 386.733 42.0667 391.733 38H415.433V50H397.833C396.033 52.0667 394.466 55.4 393.133 60C391.866 64.6 391.233 69 391.233 73.2C391.233 77.4 391.866 81.8 393.133 86.4C394.466 91 396.033 94.3333 397.833 96.4ZM429.169 38H453.169V50H433.969L433.669 50.6L449.669 79.8C452.935 85.6667 454.569 90.1333 454.569 93.2C454.569 99.9333 452.335 104.867 447.869 108H421.369V96.4H442.069L442.369 95.8L424.369 63.5C421.769 58.8333 420.469 55.0333 420.469 52.1C420.469 45.1667 423.369 40.4667 429.169 38Z"/>
</mask>
<path d="M16.1 50H1V38H44.8V50H29.7V108H16.1V50ZM79.6852 38C84.3518 41.8 87.8185 46.9 90.0852 53.3C92.3518 59.7 93.4852 66.3 93.4852 73.1C93.4852 79.8333 92.3852 86.2333 90.1852 92.3C87.9852 98.3667 84.4852 103.6 79.6852 108H59.0852C54.2852 103.6 50.7852 98.3667 48.5852 92.3C46.3852 86.2333 45.2852 79.8333 45.2852 73.1C45.2852 66.3 46.4185 59.7 48.6852 53.3C50.9518 46.9 54.4185 41.8 59.0852 38H79.6852ZM65.7852 96.4H72.9852C74.6518 94.4667 76.0518 91.3333 77.1852 87C78.3852 82.6 78.9852 77.9667 78.9852 73.1C78.9852 68.2333 78.4185 63.6667 77.2852 59.4C76.1518 55.0667 74.7518 51.9333 73.0852 50H65.7852C64.1185 51.9333 62.6852 55.0667 61.4852 59.4C60.3518 63.6667 59.7852 68.2333 59.7852 73.1C59.7852 77.9667 60.3518 82.6 61.4852 87C62.6852 91.3333 64.1185 94.4667 65.7852 96.4ZM101.284 108V38H114.984V67.5H115.484L127.984 38H142.084L127.484 71.4L142.784 108H127.584L115.684 77.4H114.984V108H101.284ZM147.573 108V38H183.473V50H161.273V66.7H181.073V78.3H161.273V96.4H183.873V108H147.573ZM222.816 108L204.116 69.3L203.616 69.5L204.216 81.3V108H191.616V38H201.716L220.116 78.2L220.616 78L219.516 65.7V38H232.116V108H222.816ZM274.314 38C278.981 41.8 282.447 46.9 284.714 53.3C286.981 59.7 288.114 66.3 288.114 73.1C288.114 79.8333 287.014 86.2333 284.814 92.3C282.614 98.3667 279.114 103.6 274.314 108H253.714C248.914 103.6 245.414 98.3667 243.214 92.3C241.014 86.2333 239.914 79.8333 239.914 73.1C239.914 66.3 241.047 59.7 243.314 53.3C245.581 46.9 249.047 41.8 253.714 38H274.314ZM260.414 96.4H267.614C269.281 94.4667 270.681 91.3333 271.814 87C273.014 82.6 273.614 77.9667 273.614 73.1C273.614 68.2333 273.047 63.6667 271.914 59.4C270.781 55.0667 269.381 51.9333 267.714 50H260.414C258.747 51.9333 257.314 55.0667 256.114 59.4C254.981 63.6667 254.414 68.2333 254.414 73.1C254.414 77.9667 254.981 82.6 256.114 87C257.314 91.3333 258.747 94.4667 260.414 96.4ZM320.437 76H320.037H320.437L325.737 54.1L330.037 38H342.537L347.037 108H333.937L332.037 69.8H331.537L324.337 98H316.137L308.937 69.8H308.437L306.537 108H293.437L297.937 38H310.437L314.737 54.1L320.037 76H320.437ZM355.093 108V38H368.793V108H355.093ZM397.833 96.4H415.433V108H390.033C385.633 103.867 382.299 98.6333 380.033 92.3C377.766 85.9667 376.633 79.4667 376.633 72.8C376.633 66.0667 377.899 59.6 380.433 53.4C382.966 47.2 386.733 42.0667 391.733 38H415.433V50H397.833C396.033 52.0667 394.466 55.4 393.133 60C391.866 64.6 391.233 69 391.233 73.2C391.233 77.4 391.866 81.8 393.133 86.4C394.466 91 396.033 94.3333 397.833 96.4ZM429.169 38H453.169V50H433.969L433.669 50.6L449.669 79.8C452.935 85.6667 454.569 90.1333 454.569 93.2C454.569 99.9333 452.335 104.867 447.869 108H421.369V96.4H442.069L442.369 95.8L424.369 63.5C421.769 58.8333 420.469 55.0333 420.469 52.1C420.469 45.1667 423.369 40.4667 429.169 38Z" fill="white"/>
<path d="M16.1 50H18.1V48H16.1V50ZM1 50H-1V52H1V50ZM1 38V36H-1V38H1ZM44.8 38H46.8V36H44.8V38ZM44.8 50V52H46.8V50H44.8ZM29.7 50V48H27.7V50H29.7ZM29.7 108V110H31.7V108H29.7ZM16.1 108H14.1V110H16.1V108ZM16.1 48H1V52H16.1V48ZM3 50V38H-1V50H3ZM1 40H44.8V36H1V40ZM42.8 38V50H46.8V38H42.8ZM44.8 48H29.7V52H44.8V48ZM27.7 50V108H31.7V50H27.7ZM29.7 106H16.1V110H29.7V106ZM18.1 108V50H14.1V108H18.1ZM79.6852 38L80.948 36.4491L80.3964 36H79.6852V38ZM90.0852 53.3L88.1999 53.9677L88.1999 53.9677L90.0852 53.3ZM90.1852 92.3L92.0653 92.9818L92.0653 92.9818L90.1852 92.3ZM79.6852 108V110H80.4631L81.0366 109.474L79.6852 108ZM59.0852 108L57.7337 109.474L58.3072 110H59.0852V108ZM48.6852 53.3L46.7999 52.6323L46.7999 52.6323L48.6852 53.3ZM59.0852 38V36H58.3739L57.8223 36.4491L59.0852 38ZM65.7852 96.4L64.2703 97.7059L64.8687 98.4H65.7852V96.4ZM72.9852 96.4V98.4H73.9016L74.5 97.7059L72.9852 96.4ZM77.1852 87L75.2556 86.4738L75.2529 86.4838L75.2502 86.4939L77.1852 87ZM77.2852 59.4L75.3502 59.9061L75.3522 59.9134L77.2852 59.4ZM73.0852 50L74.6 48.6941L74.0016 48H73.0852V50ZM65.7852 50V48H64.8687L64.2703 48.6941L65.7852 50ZM61.4852 59.4L59.5577 58.8662L59.5549 58.8764L59.5522 58.8866L61.4852 59.4ZM61.4852 87L59.5484 87.4989L59.5529 87.5164L59.5577 87.5338L61.4852 87ZM78.4223 39.5509C82.7692 43.0905 86.0397 47.8682 88.1999 53.9677L91.9704 52.6323C89.5973 45.9318 85.9344 40.5095 80.948 36.4491L78.4223 39.5509ZM88.1999 53.9677C90.3905 60.1529 91.4852 66.5271 91.4852 73.1H95.4852C95.4852 66.0729 94.3131 59.2471 91.9704 52.6323L88.1999 53.9677ZM91.4852 73.1C91.4852 79.611 90.4223 85.7795 88.305 91.6182L92.0653 92.9818C94.348 86.6872 95.4852 80.0556 95.4852 73.1H91.4852ZM88.305 91.6182C86.2158 97.3791 82.8984 102.341 78.3337 106.526L81.0366 109.474C86.0719 104.859 89.7545 99.3542 92.0653 92.9818L88.305 91.6182ZM79.6852 106H59.0852V110H79.6852V106ZM60.4366 106.526C55.8719 102.341 52.5545 97.3791 50.4653 91.6182L46.705 92.9818C49.0158 99.3542 52.6984 104.859 57.7337 109.474L60.4366 106.526ZM50.4653 91.6182C48.348 85.7795 47.2852 79.611 47.2852 73.1H43.2852C43.2852 80.0556 44.4223 86.6872 46.705 92.9818L50.4653 91.6182ZM47.2852 73.1C47.2852 66.5271 48.3798 60.1529 50.5704 53.9677L46.7999 52.6323C44.4572 59.2471 43.2852 66.0729 43.2852 73.1H47.2852ZM50.5704 53.9677C52.7307 47.8682 56.0011 43.0905 60.348 39.5509L57.8223 36.4491C52.8359 40.5095 49.173 45.9318 46.7999 52.6323L50.5704 53.9677ZM59.0852 40H79.6852V36H59.0852V40ZM65.7852 98.4H72.9852V94.4H65.7852V98.4ZM74.5 97.7059C76.4637 95.428 77.9595 91.9437 79.1201 87.5061L75.2502 86.4939C74.1442 90.723 72.84 93.5053 71.4703 95.0941L74.5 97.7059ZM79.1147 87.5262C80.3645 82.9436 80.9852 78.1325 80.9852 73.1H76.9852C76.9852 77.8008 76.4058 82.2564 75.2556 86.4738L79.1147 87.5262ZM80.9852 73.1C80.9852 68.0775 80.4002 63.3369 79.2181 58.8866L75.3522 59.9134C76.4367 63.9965 76.9852 68.3891 76.9852 73.1H80.9852ZM79.2201 58.8939C78.0595 54.4563 76.5637 50.972 74.6 48.6941L71.5703 51.3059C72.94 52.8947 74.2442 55.677 75.3502 59.9061L79.2201 58.8939ZM73.0852 48H65.7852V52H73.0852V48ZM64.2703 48.6941C62.3158 50.9614 60.7853 54.4332 59.5577 58.8662L63.4126 59.9338C64.585 55.7001 65.9212 52.9053 67.3 51.3059L64.2703 48.6941ZM59.5522 58.8866C58.3701 63.3369 57.7852 68.0775 57.7852 73.1H61.7852C61.7852 68.3891 62.3336 63.9965 63.4181 59.9134L59.5522 58.8866ZM57.7852 73.1C57.7852 78.1231 58.3702 82.9248 59.5484 87.4989L63.4219 86.5011C62.3335 82.2752 61.7852 77.8103 61.7852 73.1H57.7852ZM59.5577 87.5338C60.7853 91.9668 62.3158 95.4386 64.2703 97.7059L67.3 95.0941C65.9212 93.4947 64.585 90.6999 63.4126 86.4662L59.5577 87.5338ZM101.284 108H99.2844V110H101.284V108ZM101.284 38V36H99.2844V38H101.284ZM114.984 38H116.984V36H114.984V38ZM114.984 67.5H112.984V69.5H114.984V67.5ZM115.484 67.5V69.5H116.809L117.326 68.2803L115.484 67.5ZM127.984 38V36H126.66L126.143 37.2197L127.984 38ZM142.084 38L143.917 38.8011L145.141 36H142.084V38ZM127.484 71.4L125.652 70.5989L125.309 71.3824L125.639 72.1714L127.484 71.4ZM142.784 108V110H145.788L144.63 107.229L142.784 108ZM127.584 108L125.72 108.725L126.216 110H127.584V108ZM115.684 77.4L117.548 76.6751L117.053 75.4H115.684V77.4ZM114.984 77.4V75.4H112.984V77.4H114.984ZM114.984 108V110H116.984V108H114.984ZM103.284 108V38H99.2844V108H103.284ZM101.284 40H114.984V36H101.284V40ZM112.984 38V67.5H116.984V38H112.984ZM114.984 69.5H115.484V65.5H114.984V69.5ZM117.326 68.2803L129.826 38.7803L126.143 37.2197L113.643 66.7197L117.326 68.2803ZM127.984 40H142.084V36H127.984V40ZM140.252 37.1989L125.652 70.5989L129.317 72.2011L143.917 38.8011L140.252 37.1989ZM125.639 72.1714L140.939 108.771L144.63 107.229L129.33 70.6286L125.639 72.1714ZM142.784 106H127.584V110H142.784V106ZM129.448 107.275L117.548 76.6751L113.82 78.1249L125.72 108.725L129.448 107.275ZM115.684 75.4H114.984V79.4H115.684V75.4ZM112.984 77.4V108H116.984V77.4H112.984ZM114.984 106H101.284V110H114.984V106ZM147.573 108H145.573V110H147.573V108ZM147.573 38V36H145.573V38H147.573ZM183.473 38H185.473V36H183.473V38ZM183.473 50V52H185.473V50H183.473ZM161.273 50V48H159.273V50H161.273ZM161.273 66.7H159.273V68.7H161.273V66.7ZM181.073 66.7H183.073V64.7H181.073V66.7ZM181.073 78.3V80.3H183.073V78.3H181.073ZM161.273 78.3V76.3H159.273V78.3H161.273ZM161.273 96.4H159.273V98.4H161.273V96.4ZM183.873 96.4H185.873V94.4H183.873V96.4ZM183.873 108V110H185.873V108H183.873ZM149.573 108V38H145.573V108H149.573ZM147.573 40H183.473V36H147.573V40ZM181.473 38V50H185.473V38H181.473ZM183.473 48H161.273V52H183.473V48ZM159.273 50V66.7H163.273V50H159.273ZM161.273 68.7H181.073V64.7H161.273V68.7ZM179.073 66.7V78.3H183.073V66.7H179.073ZM181.073 76.3H161.273V80.3H181.073V76.3ZM159.273 78.3V96.4H163.273V78.3H159.273ZM161.273 98.4H183.873V94.4H161.273V98.4ZM181.873 96.4V108H185.873V96.4H181.873ZM183.873 106H147.573V110H183.873V106ZM222.816 108L221.016 108.87L221.562 110H222.816V108ZM204.116 69.3L205.917 68.4298L205.106 66.7502L203.374 67.443L204.116 69.3ZM203.616 69.5L202.874 67.643L201.546 68.1739L201.619 69.6016L203.616 69.5ZM204.216 81.3H206.216V81.2492L206.214 81.1984L204.216 81.3ZM204.216 108V110H206.216V108H204.216ZM191.616 108H189.616V110H191.616V108ZM191.616 38V36H189.616V38H191.616ZM201.716 38L203.535 37.1676L203.001 36H201.716V38ZM220.116 78.2L218.298 79.0324L219.091 80.7644L220.859 80.057L220.116 78.2ZM220.616 78L221.359 79.857L222.741 79.3042L222.608 77.8218L220.616 78ZM219.516 65.7H217.516V65.7893L217.524 65.8782L219.516 65.7ZM219.516 38V36H217.516V38H219.516ZM232.116 38H234.116V36H232.116V38ZM232.116 108V110H234.116V108H232.116ZM224.617 107.13L205.917 68.4298L202.316 70.1701L221.016 108.87L224.617 107.13ZM203.374 67.443L202.874 67.643L204.359 71.357L204.859 71.157L203.374 67.443ZM201.619 69.6016L202.219 81.4016L206.214 81.1984L205.614 69.3984L201.619 69.6016ZM202.216 81.3V108H206.216V81.3H202.216ZM204.216 106H191.616V110H204.216V106ZM193.616 108V38H189.616V108H193.616ZM191.616 40H201.716V36H191.616V40ZM199.898 38.8324L218.298 79.0324L221.935 77.3676L203.535 37.1676L199.898 38.8324ZM220.859 80.057L221.359 79.857L219.874 76.143L219.374 76.343L220.859 80.057ZM222.608 77.8218L221.508 65.5218L217.524 65.8782L218.624 78.1781L222.608 77.8218ZM221.516 65.7V38H217.516V65.7H221.516ZM219.516 40H232.116V36H219.516V40ZM230.116 38V108H234.116V38H230.116ZM232.116 106H222.816V110H232.116V106ZM274.314 38L275.577 36.4491L275.025 36H274.314V38ZM284.714 53.3L282.829 53.9677L282.829 53.9677L284.714 53.3ZM284.814 92.3L286.694 92.9818L286.694 92.9818L284.814 92.3ZM274.314 108V110H275.092L275.666 109.474L274.314 108ZM253.714 108L252.363 109.474L252.936 110H253.714V108ZM243.314 53.3L241.429 52.6323L241.429 52.6323L243.314 53.3ZM253.714 38V36H253.003L252.451 36.4491L253.714 38ZM260.414 96.4L258.899 97.7059L259.498 98.4H260.414V96.4ZM267.614 96.4V98.4H268.531L269.129 97.7059L267.614 96.4ZM271.814 87L269.885 86.4738L269.882 86.4838L269.879 86.4939L271.814 87ZM271.914 59.4L269.979 59.9061L269.981 59.9134L271.914 59.4ZM267.714 50L269.229 48.6941L268.631 48H267.714V50ZM260.414 50V48H259.498L258.899 48.6941L260.414 50ZM256.114 59.4L254.187 58.8662L254.184 58.8764L254.181 58.8866L256.114 59.4ZM256.114 87L254.177 87.4989L254.182 87.5164L254.187 87.5338L256.114 87ZM273.051 39.5509C277.398 43.0905 280.669 47.8682 282.829 53.9677L286.599 52.6323C284.226 45.9318 280.563 40.5095 275.577 36.4491L273.051 39.5509ZM282.829 53.9677C285.019 60.1529 286.114 66.5271 286.114 73.1H290.114C290.114 66.0729 288.942 59.2471 286.599 52.6323L282.829 53.9677ZM286.114 73.1C286.114 79.611 285.051 85.7795 282.934 91.6182L286.694 92.9818C288.977 86.6872 290.114 80.0556 290.114 73.1H286.114ZM282.934 91.6182C280.845 97.3791 277.527 102.341 272.963 106.526L275.666 109.474C280.701 104.859 284.383 99.3542 286.694 92.9818L282.934 91.6182ZM274.314 106H253.714V110H274.314V106ZM255.066 106.526C250.501 102.341 247.183 97.3791 245.094 91.6182L241.334 92.9818C243.645 99.3542 247.327 104.859 252.363 109.474L255.066 106.526ZM245.094 91.6182C242.977 85.7795 241.914 79.611 241.914 73.1H237.914C237.914 80.0556 239.051 86.6872 241.334 92.9818L245.094 91.6182ZM241.914 73.1C241.914 66.5271 243.009 60.1529 245.199 53.9677L241.429 52.6323C239.086 59.2471 237.914 66.0729 237.914 73.1H241.914ZM245.199 53.9677C247.36 47.8682 250.63 43.0905 254.977 39.5509L252.451 36.4491C247.465 40.5095 243.802 45.9318 241.429 52.6323L245.199 53.9677ZM253.714 40H274.314V36H253.714V40ZM260.414 98.4H267.614V94.4H260.414V98.4ZM269.129 97.7059C271.093 95.428 272.588 91.9437 273.749 87.5061L269.879 86.4939C268.773 90.723 267.469 93.5053 266.099 95.0941L269.129 97.7059ZM273.744 87.5262C274.993 82.9436 275.614 78.1325 275.614 73.1H271.614C271.614 77.8008 271.035 82.2564 269.885 86.4738L273.744 87.5262ZM275.614 73.1C275.614 68.0775 275.029 63.3369 273.847 58.8866L269.981 59.9134C271.066 63.9965 271.614 68.3891 271.614 73.1H275.614ZM273.849 58.8939C272.688 54.4563 271.193 50.972 269.229 48.6941L266.199 51.3059C267.569 52.8947 268.873 55.677 269.979 59.9061L273.849 58.8939ZM267.714 48H260.414V52H267.714V48ZM258.899 48.6941C256.945 50.9614 255.414 54.4332 254.187 58.8662L258.042 59.9338C259.214 55.7001 260.55 52.9053 261.929 51.3059L258.899 48.6941ZM254.181 58.8866C252.999 63.3369 252.414 68.0775 252.414 73.1H256.414C256.414 68.3891 256.962 63.9965 258.047 59.9134L254.181 58.8866ZM252.414 73.1C252.414 78.1231 252.999 82.9248 254.177 87.4989L258.051 86.5011C256.962 82.2752 256.414 77.8103 256.414 73.1H252.414ZM254.187 87.5338C255.414 91.9668 256.945 95.4386 258.899 97.7059L261.929 95.0941C260.55 93.4947 259.214 90.6999 258.042 86.4662L254.187 87.5338ZM320.437 76V78H322.01L322.381 76.4704L320.437 76ZM325.737 54.1L323.804 53.5839L323.798 53.6067L323.793 53.6296L325.737 54.1ZM330.037 38V36H328.501L328.104 37.4839L330.037 38ZM342.537 38L344.533 37.8717L344.412 36H342.537V38ZM347.037 108V110H349.169L349.033 107.872L347.037 108ZM333.937 108L331.939 108.099L332.034 110H333.937V108ZM332.037 69.8L334.034 69.7006L333.94 67.8H332.037V69.8ZM331.537 69.8V67.8H329.983L329.599 69.3052L331.537 69.8ZM324.337 98V100H325.89L326.275 98.4948L324.337 98ZM316.137 98L314.199 98.4948L314.583 100H316.137V98ZM308.937 69.8L310.875 69.3052L310.49 67.8H308.937V69.8ZM308.437 69.8V67.8H306.534L306.439 69.7006L308.437 69.8ZM306.537 108V110H308.44L308.534 108.099L306.537 108ZM293.437 108L291.441 107.872L291.304 110H293.437V108ZM297.937 38V36H296.061L295.941 37.8717L297.937 38ZM310.437 38L312.369 37.4839L311.973 36H310.437V38ZM314.737 54.1L316.681 53.6296L316.675 53.6067L316.669 53.5839L314.737 54.1ZM320.037 76L318.093 76.4704L318.463 78H320.037V76ZM320.437 74H320.037V78H320.437V74ZM320.037 78H320.437V74H320.037V78ZM322.381 76.4704L327.681 54.5704L323.793 53.6296L318.493 75.5296L322.381 76.4704ZM327.669 54.6161L331.969 38.5161L328.104 37.4839L323.804 53.5839L327.669 54.6161ZM330.037 40H342.537V36H330.037V40ZM340.541 38.1283L345.041 108.128L349.033 107.872L344.533 37.8717L340.541 38.1283ZM347.037 106H333.937V110H347.037V106ZM335.934 107.901L334.034 69.7006L330.039 69.8994L331.939 108.099L335.934 107.901ZM332.037 67.8H331.537V71.8H332.037V67.8ZM329.599 69.3052L322.399 97.5052L326.275 98.4948L333.475 70.2948L329.599 69.3052ZM324.337 96H316.137V100H324.337V96ZM318.075 97.5052L310.875 69.3052L306.999 70.2948L314.199 98.4948L318.075 97.5052ZM308.937 67.8H308.437V71.8H308.937V67.8ZM306.439 69.7006L304.539 107.901L308.534 108.099L310.434 69.8994L306.439 69.7006ZM306.537 106H293.437V110H306.537V106ZM295.433 108.128L299.933 38.1283L295.941 37.8717L291.441 107.872L295.433 108.128ZM297.937 40H310.437V36H297.937V40ZM308.504 38.5161L312.804 54.6161L316.669 53.5839L312.369 37.4839L308.504 38.5161ZM312.793 54.5704L318.093 76.4704L321.981 75.5296L316.681 53.6296L312.793 54.5704ZM320.037 78H320.437V74H320.037V78ZM355.093 108H353.093V110H355.093V108ZM355.093 38V36H353.093V38H355.093ZM368.793 38H370.793V36H368.793V38ZM368.793 108V110H370.793V108H368.793ZM357.093 108V38H353.093V108H357.093ZM355.093 40H368.793V36H355.093V40ZM366.793 38V108H370.793V38H366.793ZM368.793 106H355.093V110H368.793V106ZM397.833 96.4L396.325 97.7136L396.923 98.4H397.833V96.4ZM415.433 96.4H417.433V94.4H415.433V96.4ZM415.433 108V110H417.433V108H415.433ZM390.033 108L388.663 109.458L389.241 110H390.033V108ZM380.033 92.3L381.916 91.6261L380.033 92.3ZM380.433 53.4L382.284 54.1565L382.284 54.1565L380.433 53.4ZM391.733 38V36H391.022L390.471 36.4484L391.733 38ZM415.433 38H417.433V36H415.433V38ZM415.433 50V52H417.433V50H415.433ZM397.833 50V48H396.923L396.325 48.6864L397.833 50ZM393.133 60L391.212 59.4432L391.208 59.4561L391.205 59.469L393.133 60ZM393.133 86.4L391.205 86.931L391.208 86.9439L391.212 86.9568L393.133 86.4ZM397.833 98.4H415.433V94.4H397.833V98.4ZM413.433 96.4V108H417.433V96.4H413.433ZM415.433 106H390.033V110H415.433V106ZM391.402 106.542C387.258 102.65 384.088 97.6957 381.916 91.6261L378.15 92.9739C380.511 99.571 384.007 105.084 388.663 109.458L391.402 106.542ZM381.916 91.6261C379.726 85.507 378.633 79.2349 378.633 72.8H374.633C374.633 79.6985 375.806 86.4263 378.15 92.9739L381.916 91.6261ZM378.633 72.8C378.633 66.3247 379.85 60.115 382.284 54.1565L378.581 52.6435C375.949 59.085 374.633 65.8087 374.633 72.8H378.633ZM382.284 54.1565C384.696 48.2541 388.265 43.3984 392.995 39.5516L390.471 36.4484C385.2 40.735 381.236 46.1459 378.581 52.6435L382.284 54.1565ZM391.733 40H415.433V36H391.733V40ZM413.433 38V50H417.433V38H413.433ZM415.433 48H397.833V52H415.433V48ZM396.325 48.6864C394.241 51.079 392.574 54.7425 391.212 59.4432L395.054 60.5568C396.358 56.0575 397.825 53.0543 399.341 51.3136L396.325 48.6864ZM391.205 59.469C389.897 64.219 389.233 68.7982 389.233 73.2H393.233C393.233 69.2018 393.836 64.981 395.061 60.531L391.205 59.469ZM389.233 73.2C389.233 77.6018 389.897 82.181 391.205 86.931L395.061 85.869C393.836 81.419 393.233 77.1982 393.233 73.2H389.233ZM391.212 86.9568C392.574 91.6575 394.241 95.321 396.325 97.7136L399.341 95.0864C397.825 93.3457 396.358 90.3425 395.054 85.8432L391.212 86.9568ZM429.169 38V36H428.761L428.386 36.1595L429.169 38ZM453.169 38H455.169V36H453.169V38ZM453.169 50V52H455.169V50H453.169ZM433.969 50V48H432.733L432.18 49.1056L433.969 50ZM433.669 50.6L431.88 49.7056L431.411 50.6425L431.915 51.5611L433.669 50.6ZM449.669 79.8L447.915 80.7611L447.921 80.773L449.669 79.8ZM447.869 108V110H448.5L449.017 109.637L447.869 108ZM421.369 108H419.369V110H421.369V108ZM421.369 96.4V94.4H419.369V96.4H421.369ZM442.069 96.4V98.4H443.305L443.858 97.2944L442.069 96.4ZM442.369 95.8L444.158 96.6944L444.63 95.7494L444.116 94.8264L442.369 95.8ZM424.369 63.5L422.622 64.4734L422.622 64.4736L424.369 63.5ZM429.169 40H453.169V36H429.169V40ZM451.169 38V50H455.169V38H451.169ZM453.169 48H433.969V52H453.169V48ZM432.18 49.1056L431.88 49.7056L435.458 51.4944L435.758 50.8944L432.18 49.1056ZM431.915 51.5611L447.915 80.7611L451.423 78.8389L435.423 49.6389L431.915 51.5611ZM447.921 80.773C451.176 86.6173 452.569 90.69 452.569 93.2H456.569C456.569 89.5766 454.695 84.716 451.416 78.827L447.921 80.773ZM452.569 93.2C452.569 99.4535 450.526 103.693 446.72 106.363L449.017 109.637C454.145 106.041 456.569 100.413 456.569 93.2H452.569ZM447.869 106H421.369V110H447.869V106ZM423.369 108V96.4H419.369V108H423.369ZM421.369 98.4H442.069V94.4H421.369V98.4ZM443.858 97.2944L444.158 96.6944L440.58 94.9056L440.28 95.5056L443.858 97.2944ZM444.116 94.8264L426.116 62.5264L422.622 64.4736L440.622 96.7736L444.116 94.8264ZM426.116 62.5266C423.566 57.9497 422.469 54.5151 422.469 52.1H418.469C418.469 55.5516 419.972 59.7169 422.622 64.4734L426.116 62.5266ZM422.469 52.1C422.469 48.9102 423.135 46.3881 424.346 44.4252C425.549 42.4757 427.377 40.9356 429.951 39.8405L428.386 36.1595C425.161 37.5311 422.639 39.5743 420.942 42.3248C419.253 45.0619 418.469 48.3565 418.469 52.1H422.469Z" fill="black" mask="url(#path-3-outside-2_328_190)"/>
</svg>
