<svg width="716" height="145" viewBox="0 0 716 145" fill="none" xmlns="http://www.w3.org/2000/svg">
<mask id="path-1-outside-1_328_190" maskUnits="userSpaceOnUse" x="1" y="41" width="715" height="74" fill="black">
<rect fill="white" x="1" y="41" width="715" height="74"/>
<path d="M24.2 101.4H41.8V113H16.4C12 108.867 8.66667 103.633 6.4 97.3C4.13333 90.9667 3 84.4667 3 77.8C3 71.0667 4.26667 64.6 6.8 58.4C9.33333 52.2 13.1 47.0667 18.1 43H41.8V55H24.2C22.4 57.0667 20.8333 60.4 19.5 65C18.2333 69.6 17.6 74 17.6 78.2C17.6 82.4 18.2333 86.8 19.5 91.4C20.8333 96 22.4 99.3333 24.2 101.4ZM79.1969 43C83.8635 46.8 87.3302 51.9 89.5969 58.3C91.8635 64.7 92.9969 71.3 92.9969 78.1C92.9969 84.8333 91.8969 91.2333 89.6969 97.3C87.4969 103.367 83.9969 108.6 79.1969 113H58.5969C53.7969 108.6 50.2969 103.367 48.0969 97.3C45.8969 91.2333 44.7969 84.8333 44.7969 78.1C44.7969 71.3 45.9302 64.7 48.1969 58.3C50.4635 51.9 53.9302 46.8 58.5969 43H79.1969ZM65.2969 101.4H72.4969C74.1635 99.4667 75.5635 96.3333 76.6969 92C77.8969 87.6 78.4969 82.9667 78.4969 78.1C78.4969 73.2333 77.9302 68.6667 76.7969 64.4C75.6635 60.0667 74.2635 56.9333 72.5969 55H65.2969C63.6302 56.9333 62.1969 60.0667 60.9969 64.4C59.8635 68.6667 59.2969 73.2333 59.2969 78.1C59.2969 82.9667 59.8635 87.6 60.9969 92C62.1969 96.3333 63.6302 99.4667 65.2969 101.4ZM131.996 113L113.296 74.3L112.796 74.5L113.396 86.3V113H100.796V43H110.896L129.296 83.2L129.796 83L128.696 70.7V43H141.296V113H131.996ZM162.194 55H147.094V43H190.894V55H175.794V113H162.194V55ZM196.695 43H223.295C227.495 44.4 231.061 47 233.995 50.8C236.995 54.5333 238.495 59.1333 238.495 64.6C238.495 73.5333 234.961 80.1 227.895 84.3L237.995 113H223.995L215.495 87.5H210.195V113H196.695V43ZM210.195 55V76.3H218.795C219.928 76.0333 221.161 74.9 222.495 72.9C223.895 70.8333 224.595 68.4333 224.595 65.7C224.595 62.9667 223.995 60.5667 222.795 58.5C221.661 56.4333 220.528 55.2667 219.395 55H210.195ZM275.518 113L273.418 101.9H257.618L255.518 113H241.918L255.418 43H276.118L288.918 113H275.518ZM265.318 56L261.418 79.3L259.218 91.2H271.718L269.418 79.3L265.518 56H265.318ZM313.165 101.4H330.765V113H305.365C300.965 108.867 297.632 103.633 295.365 97.3C293.098 90.9667 291.965 84.4667 291.965 77.8C291.965 71.0667 293.232 64.6 295.765 58.4C298.298 52.2 302.065 47.0667 307.065 43H330.765V55H313.165C311.365 57.0667 309.798 60.4 308.465 65C307.198 69.6 306.565 74 306.565 78.2C306.565 82.4 307.198 86.8 308.465 91.4C309.798 96 311.365 99.3333 313.165 101.4ZM349.401 55H334.301V43H378.101V55H363.001V113H349.401V55ZM429.717 113L427.617 101.9H411.817L409.717 113H396.117L409.617 43H430.317L443.117 113H429.717ZM419.517 56L415.617 79.3L413.417 91.2H425.917L423.617 79.3L419.717 56H419.517ZM462.541 101.4H471.541C473.407 99.0667 474.874 95.6667 475.941 91.2C477.074 86.7333 477.641 82.3 477.641 77.9C477.641 67.4333 475.674 59.8 471.741 55H462.541V101.4ZM448.941 113V43H477.941C487.407 51.4 492.141 62.8 492.141 77.2C492.141 91.5333 487.707 103.467 478.841 113H448.941ZM513.517 101.4H522.517C524.384 99.0667 525.851 95.6667 526.917 91.2C528.051 86.7333 528.617 82.3 528.617 77.9C528.617 67.4333 526.651 59.8 522.717 55H513.517V101.4ZM499.917 113V43H528.917C538.384 51.4 543.117 62.8 543.117 77.2C543.117 91.5333 538.684 103.467 529.817 113H499.917ZM550.894 43H577.494C581.694 44.4 585.26 47 588.194 50.8C591.194 54.5333 592.694 59.1333 592.694 64.6C592.694 73.5333 589.16 80.1 582.094 84.3L592.194 113H578.194L569.694 87.5H564.394V113H550.894V43ZM564.394 55V76.3H572.994C574.127 76.0333 575.36 74.9 576.694 72.9C578.094 70.8333 578.794 68.4333 578.794 65.7C578.794 62.9667 578.194 60.5667 576.994 58.5C575.86 56.4333 574.727 55.2667 573.594 55H564.394ZM599.917 113V43H635.817V55H613.617V71.7H633.417V83.3H613.617V101.4H636.217V113H599.917ZM649.384 43H673.384V55H654.184L653.884 55.6L669.884 84.8C673.15 90.6667 674.784 95.1333 674.784 98.2C674.784 104.933 672.55 109.867 668.084 113H641.584V101.4H662.284L662.584 100.8L644.584 68.5C641.984 63.8333 640.684 60.0333 640.684 57.1C640.684 50.1667 643.584 45.4667 649.384 43ZM688.153 43H712.153V55H692.953L692.653 55.6L708.653 84.8C711.92 90.6667 713.553 95.1333 713.553 98.2C713.553 104.933 711.32 109.867 706.853 113H680.353V101.4H701.053L701.353 100.8L683.353 68.5C680.753 63.8333 679.453 60.0333 679.453 57.1C679.453 50.1667 682.353 45.4667 688.153 43Z"/>
</mask>
<path d="M24.2 101.4H41.8V113H16.4C12 108.867 8.66667 103.633 6.4 97.3C4.13333 90.9667 3 84.4667 3 77.8C3 71.0667 4.26667 64.6 6.8 58.4C9.33333 52.2 13.1 47.0667 18.1 43H41.8V55H24.2C22.4 57.0667 20.8333 60.4 19.5 65C18.2333 69.6 17.6 74 17.6 78.2C17.6 82.4 18.2333 86.8 19.5 91.4C20.8333 96 22.4 99.3333 24.2 101.4ZM79.1969 43C83.8635 46.8 87.3302 51.9 89.5969 58.3C91.8635 64.7 92.9969 71.3 92.9969 78.1C92.9969 84.8333 91.8969 91.2333 89.6969 97.3C87.4969 103.367 83.9969 108.6 79.1969 113H58.5969C53.7969 108.6 50.2969 103.367 48.0969 97.3C45.8969 91.2333 44.7969 84.8333 44.7969 78.1C44.7969 71.3 45.9302 64.7 48.1969 58.3C50.4635 51.9 53.9302 46.8 58.5969 43H79.1969ZM65.2969 101.4H72.4969C74.1635 99.4667 75.5635 96.3333 76.6969 92C77.8969 87.6 78.4969 82.9667 78.4969 78.1C78.4969 73.2333 77.9302 68.6667 76.7969 64.4C75.6635 60.0667 74.2635 56.9333 72.5969 55H65.2969C63.6302 56.9333 62.1969 60.0667 60.9969 64.4C59.8635 68.6667 59.2969 73.2333 59.2969 78.1C59.2969 82.9667 59.8635 87.6 60.9969 92C62.1969 96.3333 63.6302 99.4667 65.2969 101.4ZM131.996 113L113.296 74.3L112.796 74.5L113.396 86.3V113H100.796V43H110.896L129.296 83.2L129.796 83L128.696 70.7V43H141.296V113H131.996ZM162.194 55H147.094V43H190.894V55H175.794V113H162.194V55ZM196.695 43H223.295C227.495 44.4 231.061 47 233.995 50.8C236.995 54.5333 238.495 59.1333 238.495 64.6C238.495 73.5333 234.961 80.1 227.895 84.3L237.995 113H223.995L215.495 87.5H210.195V113H196.695V43ZM210.195 55V76.3H218.795C219.928 76.0333 221.161 74.9 222.495 72.9C223.895 70.8333 224.595 68.4333 224.595 65.7C224.595 62.9667 223.995 60.5667 222.795 58.5C221.661 56.4333 220.528 55.2667 219.395 55H210.195ZM275.518 113L273.418 101.9H257.618L255.518 113H241.918L255.418 43H276.118L288.918 113H275.518ZM265.318 56L261.418 79.3L259.218 91.2H271.718L269.418 79.3L265.518 56H265.318ZM313.165 101.4H330.765V113H305.365C300.965 108.867 297.632 103.633 295.365 97.3C293.098 90.9667 291.965 84.4667 291.965 77.8C291.965 71.0667 293.232 64.6 295.765 58.4C298.298 52.2 302.065 47.0667 307.065 43H330.765V55H313.165C311.365 57.0667 309.798 60.4 308.465 65C307.198 69.6 306.565 74 306.565 78.2C306.565 82.4 307.198 86.8 308.465 91.4C309.798 96 311.365 99.3333 313.165 101.4ZM349.401 55H334.301V43H378.101V55H363.001V113H349.401V55ZM429.717 113L427.617 101.9H411.817L409.717 113H396.117L409.617 43H430.317L443.117 113H429.717ZM419.517 56L415.617 79.3L413.417 91.2H425.917L423.617 79.3L419.717 56H419.517ZM462.541 101.4H471.541C473.407 99.0667 474.874 95.6667 475.941 91.2C477.074 86.7333 477.641 82.3 477.641 77.9C477.641 67.4333 475.674 59.8 471.741 55H462.541V101.4ZM448.941 113V43H477.941C487.407 51.4 492.141 62.8 492.141 77.2C492.141 91.5333 487.707 103.467 478.841 113H448.941ZM513.517 101.4H522.517C524.384 99.0667 525.851 95.6667 526.917 91.2C528.051 86.7333 528.617 82.3 528.617 77.9C528.617 67.4333 526.651 59.8 522.717 55H513.517V101.4ZM499.917 113V43H528.917C538.384 51.4 543.117 62.8 543.117 77.2C543.117 91.5333 538.684 103.467 529.817 113H499.917ZM550.894 43H577.494C581.694 44.4 585.26 47 588.194 50.8C591.194 54.5333 592.694 59.1333 592.694 64.6C592.694 73.5333 589.16 80.1 582.094 84.3L592.194 113H578.194L569.694 87.5H564.394V113H550.894V43ZM564.394 55V76.3H572.994C574.127 76.0333 575.36 74.9 576.694 72.9C578.094 70.8333 578.794 68.4333 578.794 65.7C578.794 62.9667 578.194 60.5667 576.994 58.5C575.86 56.4333 574.727 55.2667 573.594 55H564.394ZM599.917 113V43H635.817V55H613.617V71.7H633.417V83.3H613.617V101.4H636.217V113H599.917ZM649.384 43H673.384V55H654.184L653.884 55.6L669.884 84.8C673.15 90.6667 674.784 95.1333 674.784 98.2C674.784 104.933 672.55 109.867 668.084 113H641.584V101.4H662.284L662.584 100.8L644.584 68.5C641.984 63.8333 640.684 60.0333 640.684 57.1C640.684 50.1667 643.584 45.4667 649.384 43ZM688.153 43H712.153V55H692.953L692.653 55.6L708.653 84.8C711.92 90.6667 713.553 95.1333 713.553 98.2C713.553 104.933 711.32 109.867 706.853 113H680.353V101.4H701.053L701.353 100.8L683.353 68.5C680.753 63.8333 679.453 60.0333 679.453 57.1C679.453 50.1667 682.353 45.4667 688.153 43Z" fill="#7DF7DA"/>
<path d="M24.2 101.4L22.6918 102.714L23.2897 103.4H24.2V101.4ZM41.8 101.4H43.8V99.4H41.8V101.4ZM41.8 113V115H43.8V113H41.8ZM16.4 113L15.0306 114.458L15.6079 115H16.4V113ZM6.4 97.3L8.28304 96.6261L6.4 97.3ZM6.8 58.4L8.65141 59.1565L8.65141 59.1565L6.8 58.4ZM18.1 43V41H17.3894L16.838 41.4484L18.1 43ZM41.8 43H43.8V41H41.8V43ZM41.8 55V57H43.8V55H41.8ZM24.2 55V53H23.2897L22.6918 53.6864L24.2 55ZM19.5 65L17.5791 64.4432L17.5753 64.4561L17.5718 64.469L19.5 65ZM19.5 91.4L17.5718 91.931L17.5753 91.9439L17.5791 91.9568L19.5 91.4ZM24.2 103.4H41.8V99.4H24.2V103.4ZM39.8 101.4V113H43.8V101.4H39.8ZM41.8 111H16.4V115H41.8V111ZM17.7694 111.542C13.6256 107.65 10.4553 102.696 8.28304 96.6261L4.51697 97.9739C6.87801 104.571 10.3744 110.084 15.0306 114.458L17.7694 111.542ZM8.28304 96.6261C6.09306 90.507 5 84.2349 5 77.8H1C1 84.6985 2.17361 91.4263 4.51697 97.9739L8.28304 96.6261ZM5 77.8C5 71.3247 6.21674 65.115 8.65141 59.1565L4.94859 57.6435C2.3166 64.085 1 70.8087 1 77.8H5ZM8.65141 59.1565C11.0631 53.2541 14.6323 48.3984 19.362 44.5516L16.838 41.4484C11.5677 45.735 7.60353 51.1459 4.94859 57.6435L8.65141 59.1565ZM18.1 45H41.8V41H18.1V45ZM39.8 43V55H43.8V43H39.8ZM41.8 53H24.2V57H41.8V53ZM22.6918 53.6864C20.608 56.079 18.9416 59.7425 17.5791 64.4432L21.4209 65.5568C22.7251 61.0575 24.192 58.0543 25.7082 56.3136L22.6918 53.6864ZM17.5718 64.469C16.2638 69.219 15.6 73.7982 15.6 78.2H19.6C19.6 74.2018 20.2029 69.981 21.4282 65.531L17.5718 64.469ZM15.6 78.2C15.6 82.6018 16.2638 87.181 17.5718 91.931L21.4282 90.869C20.2029 86.419 19.6 82.1982 19.6 78.2H15.6ZM17.5791 91.9568C18.9416 96.6575 20.608 100.321 22.6918 102.714L25.7082 100.086C24.192 98.3457 22.7251 95.3425 21.4209 90.8432L17.5791 91.9568ZM79.1969 43L80.4597 41.4491L79.9082 41H79.1969V43ZM89.5969 58.3L87.7116 58.9677L87.7116 58.9677L89.5969 58.3ZM89.6969 97.3L91.5771 97.9818L91.5771 97.9818L89.6969 97.3ZM79.1969 113V115H79.9748L80.5483 114.474L79.1969 113ZM58.5969 113L57.2454 114.474L57.8189 115H58.5969V113ZM48.1969 58.3L46.3116 57.6323L46.3116 57.6323L48.1969 58.3ZM58.5969 43V41H57.8856L57.334 41.4491L58.5969 43ZM65.2969 101.4L63.7821 102.706L64.3804 103.4H65.2969V101.4ZM72.4969 101.4V103.4H73.4133L74.0117 102.706L72.4969 101.4ZM76.6969 92L74.7673 91.4738L74.7646 91.4838L74.762 91.4939L76.6969 92ZM76.7969 64.4L74.8619 64.9061L74.8639 64.9134L76.7969 64.4ZM72.5969 55L74.1117 53.6941L73.5133 53H72.5969V55ZM65.2969 55V53H64.3804L63.7821 53.6941L65.2969 55ZM60.9969 64.4L59.0694 63.8662L59.0666 63.8764L59.0639 63.8866L60.9969 64.4ZM60.9969 92L59.0601 92.4989L59.0646 92.5164L59.0694 92.5338L60.9969 92ZM77.934 44.5509C82.2809 48.0905 85.5514 52.8682 87.7116 58.9677L91.4821 57.6323C89.109 50.9318 85.4462 45.5095 80.4597 41.4491L77.934 44.5509ZM87.7116 58.9677C89.9022 65.1529 90.9969 71.5271 90.9969 78.1H94.9969C94.9969 71.0729 93.8249 64.2471 91.4821 57.6323L87.7116 58.9677ZM90.9969 78.1C90.9969 84.611 89.934 90.7795 87.8167 96.6182L91.5771 97.9818C93.8597 91.6872 94.9969 85.0556 94.9969 78.1H90.9969ZM87.8167 96.6182C85.7276 102.379 82.4102 107.341 77.8454 111.526L80.5483 114.474C85.5836 109.859 89.2662 104.354 91.5771 97.9818L87.8167 96.6182ZM79.1969 111H58.5969V115H79.1969V111ZM59.9483 111.526C55.3836 107.341 52.0662 102.379 49.9771 96.6182L46.2167 97.9818C48.5276 104.354 52.2102 109.859 57.2454 114.474L59.9483 111.526ZM49.9771 96.6182C47.8597 90.7795 46.7969 84.611 46.7969 78.1H42.7969C42.7969 85.0556 43.934 91.6872 46.2167 97.9818L49.9771 96.6182ZM46.7969 78.1C46.7969 71.5271 47.8915 65.1529 50.0821 58.9677L46.3116 57.6323C43.9689 64.2471 42.7969 71.0729 42.7969 78.1H46.7969ZM50.0821 58.9677C52.2424 52.8682 55.5128 48.0905 59.8597 44.5509L57.334 41.4491C52.3476 45.5095 48.6847 50.9318 46.3116 57.6323L50.0821 58.9677ZM58.5969 45H79.1969V41H58.5969V45ZM65.2969 103.4H72.4969V99.4H65.2969V103.4ZM74.0117 102.706C75.9754 100.428 77.4712 96.9437 78.6318 92.5061L74.762 91.4939C73.6559 95.723 72.3517 98.5053 70.9821 100.094L74.0117 102.706ZM78.6264 92.5262C79.8762 87.9436 80.4969 83.1325 80.4969 78.1H76.4969C76.4969 82.8008 75.9175 87.2564 74.7673 91.4738L78.6264 92.5262ZM80.4969 78.1C80.4969 73.0775 79.912 68.3369 78.7298 63.8866L74.8639 64.9134C75.9485 68.9965 76.4969 73.3891 76.4969 78.1H80.4969ZM78.7318 63.8939C77.5712 59.4563 76.0754 55.972 74.1117 53.6941L71.0821 56.3059C72.4517 57.8947 73.7559 60.677 74.862 64.9061L78.7318 63.8939ZM72.5969 53H65.2969V57H72.5969V53ZM63.7821 53.6941C61.8275 55.9614 60.297 59.4332 59.0694 63.8662L62.9243 64.9338C64.0967 60.7001 65.4329 57.9053 66.8117 56.3059L63.7821 53.6941ZM59.0639 63.8866C57.8818 68.3369 57.2969 73.0775 57.2969 78.1H61.2969C61.2969 73.3891 61.8453 68.9965 62.9298 64.9134L59.0639 63.8866ZM57.2969 78.1C57.2969 83.1231 57.8819 87.9248 59.0601 92.4989L62.9337 91.5011C61.8452 87.2752 61.2969 82.8103 61.2969 78.1H57.2969ZM59.0694 92.5338C60.297 96.9668 61.8275 100.439 63.7821 102.706L66.8117 100.094C65.4329 98.4947 64.0967 95.6999 62.9243 91.4662L59.0694 92.5338ZM131.996 113L130.195 113.87L130.741 115H131.996V113ZM113.296 74.3L115.097 73.4298L114.285 71.7502L112.553 72.443L113.296 74.3ZM112.796 74.5L112.053 72.643L110.726 73.1739L110.799 74.6016L112.796 74.5ZM113.396 86.3H115.396V86.2492L115.394 86.1984L113.396 86.3ZM113.396 113V115H115.396V113H113.396ZM100.796 113H98.7961V115H100.796V113ZM100.796 43V41H98.7961V43H100.796ZM110.896 43L112.715 42.1676L112.18 41H110.896V43ZM129.296 83.2L127.478 84.0324L128.27 85.7644L130.039 85.057L129.296 83.2ZM129.796 83L130.539 84.857L131.921 84.3042L131.788 82.8218L129.796 83ZM128.696 70.7H126.696V70.7893L126.704 70.8782L128.696 70.7ZM128.696 43V41H126.696V43H128.696ZM141.296 43H143.296V41H141.296V43ZM141.296 113V115H143.296V113H141.296ZM133.797 112.13L115.097 73.4298L111.495 75.1701L130.195 113.87L133.797 112.13ZM112.553 72.443L112.053 72.643L113.539 76.357L114.039 76.157L112.553 72.443ZM110.799 74.6016L111.399 86.4016L115.394 86.1984L114.794 74.3984L110.799 74.6016ZM111.396 86.3V113H115.396V86.3H111.396ZM113.396 111H100.796V115H113.396V111ZM102.796 113V43H98.7961V113H102.796ZM100.796 45H110.896V41H100.796V45ZM109.078 43.8324L127.478 84.0324L131.115 82.3676L112.715 42.1676L109.078 43.8324ZM130.039 85.057L130.539 84.857L129.053 81.143L128.553 81.343L130.039 85.057ZM131.788 82.8218L130.688 70.5218L126.704 70.8782L127.804 83.1781L131.788 82.8218ZM130.696 70.7V43H126.696V70.7H130.696ZM128.696 45H141.296V41H128.696V45ZM139.296 43V113H143.296V43H139.296ZM141.296 111H131.996V115H141.296V111ZM162.194 55H164.194V53H162.194V55ZM147.094 55H145.094V57H147.094V55ZM147.094 43V41H145.094V43H147.094ZM190.894 43H192.894V41H190.894V43ZM190.894 55V57H192.894V55H190.894ZM175.794 55V53H173.794V55H175.794ZM175.794 113V115H177.794V113H175.794ZM162.194 113H160.194V115H162.194V113ZM162.194 53H147.094V57H162.194V53ZM149.094 55V43H145.094V55H149.094ZM147.094 45H190.894V41H147.094V45ZM188.894 43V55H192.894V43H188.894ZM190.894 53H175.794V57H190.894V53ZM173.794 55V113H177.794V55H173.794ZM175.794 111H162.194V115H175.794V111ZM164.194 113V55H160.194V113H164.194ZM196.695 43V41H194.695V43H196.695ZM223.295 43L223.927 41.1026L223.619 41H223.295V43ZM233.995 50.8L232.411 52.0221L232.423 52.0376L232.436 52.0528L233.995 50.8ZM227.895 84.3L226.873 82.5807L225.464 83.418L226.008 84.9639L227.895 84.3ZM237.995 113V115H240.819L239.881 112.336L237.995 113ZM223.995 113L222.097 113.632L222.553 115H223.995V113ZM215.495 87.5L217.392 86.8675L216.936 85.5H215.495V87.5ZM210.195 87.5V85.5H208.195V87.5H210.195ZM210.195 113V115H212.195V113H210.195ZM196.695 113H194.695V115H196.695V113ZM210.195 55V53H208.195V55H210.195ZM210.195 76.3H208.195V78.3H210.195V76.3ZM218.795 76.3V78.3H219.027L219.253 78.2468L218.795 76.3ZM222.495 72.9L220.839 71.7783L220.835 71.7844L220.83 71.7906L222.495 72.9ZM222.795 58.5L221.041 59.4617L221.053 59.4831L221.065 59.5043L222.795 58.5ZM219.395 55L219.853 53.0532L219.627 53H219.395V55ZM196.695 45H223.295V41H196.695V45ZM222.662 44.8974C226.453 46.1611 229.699 48.5089 232.411 52.0221L235.578 49.5779C232.423 45.4911 228.536 42.6389 223.927 41.1026L222.662 44.8974ZM232.436 52.0528C235.11 55.3814 236.495 59.5211 236.495 64.6H240.495C240.495 58.7456 238.879 53.6852 235.554 49.5472L232.436 52.0528ZM236.495 64.6C236.495 72.9018 233.272 78.7775 226.873 82.5807L228.916 86.0193C236.651 81.4225 240.495 74.1648 240.495 64.6H236.495ZM226.008 84.9639L236.108 113.664L239.881 112.336L229.781 83.6361L226.008 84.9639ZM237.995 111H223.995V115H237.995V111ZM225.892 112.368L217.392 86.8675L213.597 88.1325L222.097 113.632L225.892 112.368ZM215.495 85.5H210.195V89.5H215.495V85.5ZM208.195 87.5V113H212.195V87.5H208.195ZM210.195 111H196.695V115H210.195V111ZM198.695 113V43H194.695V113H198.695ZM208.195 55V76.3H212.195V55H208.195ZM210.195 78.3H218.795V74.3H210.195V78.3ZM219.253 78.2468C221.193 77.7903 222.797 76.0514 224.159 74.0094L220.83 71.7906C219.525 73.7486 218.663 74.2764 218.336 74.3532L219.253 78.2468ZM224.15 74.0217C225.796 71.5925 226.595 68.7935 226.595 65.7H222.595C222.595 68.0731 221.993 70.0741 220.839 71.7783L224.15 74.0217ZM226.595 65.7C226.595 62.6654 225.925 59.9091 224.524 57.4957L221.065 59.5043C222.064 61.2242 222.595 63.2679 222.595 65.7H226.595ZM224.548 57.5383C223.387 55.4206 221.89 53.5327 219.853 53.0532L218.936 56.9468C219.165 57.0007 219.936 57.446 221.041 59.4617L224.548 57.5383ZM219.395 53H210.195V57H219.395V53ZM275.518 113L273.553 113.372L273.861 115H275.518V113ZM273.418 101.9L275.383 101.528L275.075 99.9H273.418V101.9ZM257.618 101.9V99.9H255.961L255.653 101.528L257.618 101.9ZM255.518 113V115H257.175L257.483 113.372L255.518 113ZM241.918 113L239.954 112.621L239.495 115H241.918V113ZM255.418 43V41H253.767L253.454 42.6213L255.418 43ZM276.118 43L278.085 42.6402L277.785 41H276.118V43ZM288.918 113V115H291.317L290.885 112.64L288.918 113ZM265.318 56V54H263.625L263.345 55.6698L265.318 56ZM261.418 79.3L263.385 79.6636L263.388 79.6469L263.391 79.6302L261.418 79.3ZM259.218 91.2L257.251 90.8364L256.814 93.2H259.218V91.2ZM271.718 91.2V93.2H274.142L273.682 90.8205L271.718 91.2ZM269.418 79.3L267.445 79.6302L267.45 79.6549L267.454 79.6795L269.418 79.3ZM265.518 56L267.491 55.6698L267.211 54H265.518V56ZM277.483 112.628L275.383 101.528L271.453 102.272L273.553 113.372L277.483 112.628ZM273.418 99.9H257.618V103.9H273.418V99.9ZM255.653 101.528L253.553 112.628L257.483 113.372L259.583 102.272L255.653 101.528ZM255.518 111H241.918V115H255.518V111ZM243.882 113.379L257.382 43.3787L253.454 42.6213L239.954 112.621L243.882 113.379ZM255.418 45H276.118V41H255.418V45ZM274.151 43.3597L286.951 113.36L290.885 112.64L278.085 42.6402L274.151 43.3597ZM288.918 111H275.518V115H288.918V111ZM263.345 55.6698L259.445 78.9698L263.391 79.6302L267.291 56.3302L263.345 55.6698ZM259.451 78.9364L257.251 90.8364L261.185 91.5636L263.385 79.6636L259.451 78.9364ZM259.218 93.2H271.718V89.2H259.218V93.2ZM273.682 90.8205L271.382 78.9205L267.454 79.6795L269.754 91.5795L273.682 90.8205ZM271.391 78.9698L267.491 55.6698L263.545 56.3302L267.445 79.6302L271.391 78.9698ZM265.518 54H265.318V58H265.518V54ZM313.165 101.4L311.657 102.714L312.255 103.4H313.165V101.4ZM330.765 101.4H332.765V99.4H330.765V101.4ZM330.765 113V115H332.765V113H330.765ZM305.365 113L303.995 114.458L304.573 115H305.365V113ZM295.365 97.3L297.248 96.6261L295.365 97.3ZM295.765 58.4L297.616 59.1565L297.616 59.1565L295.765 58.4ZM307.065 43V41H306.354L305.803 41.4484L307.065 43ZM330.765 43H332.765V41H330.765V43ZM330.765 55V57H332.765V55H330.765ZM313.165 55V53H312.255L311.657 53.6864L313.165 55ZM308.465 65L306.544 64.4432L306.54 64.4561L306.537 64.469L308.465 65ZM308.465 91.4L306.537 91.931L306.54 91.9439L306.544 91.9568L308.465 91.4ZM313.165 103.4H330.765V99.4H313.165V103.4ZM328.765 101.4V113H332.765V101.4H328.765ZM330.765 111H305.365V115H330.765V111ZM306.734 111.542C302.59 107.65 299.42 102.696 297.248 96.6261L293.482 97.9739C295.843 104.571 299.339 110.084 303.995 114.458L306.734 111.542ZM297.248 96.6261C295.058 90.507 293.965 84.2349 293.965 77.8H289.965C289.965 84.6985 291.138 91.4263 293.482 97.9739L297.248 96.6261ZM293.965 77.8C293.965 71.3247 295.182 65.115 297.616 59.1565L293.913 57.6435C291.281 64.085 289.965 70.8087 289.965 77.8H293.965ZM297.616 59.1565C300.028 53.2541 303.597 48.3984 308.327 44.5516L305.803 41.4484C300.533 45.735 296.568 51.1459 293.913 57.6435L297.616 59.1565ZM307.065 45H330.765V41H307.065V45ZM328.765 43V55H332.765V43H328.765ZM330.765 53H313.165V57H330.765V53ZM311.657 53.6864C309.573 56.079 307.906 59.7425 306.544 64.4432L310.386 65.5568C311.69 61.0575 313.157 58.0543 314.673 56.3136L311.657 53.6864ZM306.537 64.469C305.229 69.219 304.565 73.7982 304.565 78.2H308.565C308.565 74.2018 309.168 69.981 310.393 65.531L306.537 64.469ZM304.565 78.2C304.565 82.6018 305.229 87.181 306.537 91.931L310.393 90.869C309.168 86.419 308.565 82.1982 308.565 78.2H304.565ZM306.544 91.9568C307.906 96.6575 309.573 100.321 311.657 102.714L314.673 100.086C313.157 98.3457 311.69 95.3425 310.386 90.8432L306.544 91.9568ZM349.401 55H351.401V53H349.401V55ZM334.301 55H332.301V57H334.301V55ZM334.301 43V41H332.301V43H334.301ZM378.101 43H380.101V41H378.101V43ZM378.101 55V57H380.101V55H378.101ZM363.001 55V53H361.001V55H363.001ZM363.001 113V115H365.001V113H363.001ZM349.401 113H347.401V115H349.401V113ZM349.401 53H334.301V57H349.401V53ZM336.301 55V43H332.301V55H336.301ZM334.301 45H378.101V41H334.301V45ZM376.101 43V55H380.101V43H376.101ZM378.101 53H363.001V57H378.101V53ZM361.001 55V113H365.001V55H361.001ZM363.001 111H349.401V115H363.001V111ZM351.401 113V55H347.401V113H351.401ZM429.717 113L427.752 113.372L428.06 115H429.717V113ZM427.617 101.9L429.582 101.528L429.274 99.9H427.617V101.9ZM411.817 101.9V99.9H410.16L409.852 101.528L411.817 101.9ZM409.717 113V115H411.374L411.682 113.372L409.717 113ZM396.117 113L394.153 112.621L393.695 115H396.117V113ZM409.617 43V41H407.966L407.653 42.6213L409.617 43ZM430.317 43L432.285 42.6402L431.985 41H430.317V43ZM443.117 113V115H445.516L445.085 112.64L443.117 113ZM419.517 56V54H417.824L417.545 55.6698L419.517 56ZM415.617 79.3L417.584 79.6636L417.587 79.6469L417.59 79.6302L415.617 79.3ZM413.417 91.2L411.451 90.8364L411.014 93.2H413.417V91.2ZM425.917 91.2V93.2H428.341L427.881 90.8205L425.917 91.2ZM423.617 79.3L421.645 79.6302L421.649 79.6549L421.654 79.6795L423.617 79.3ZM419.717 56L421.69 55.6698L421.41 54H419.717V56ZM431.682 112.628L429.582 101.528L425.652 102.272L427.752 113.372L431.682 112.628ZM427.617 99.9H411.817V103.9H427.617V99.9ZM409.852 101.528L407.752 112.628L411.682 113.372L413.782 102.272L409.852 101.528ZM409.717 111H396.117V115H409.717V111ZM398.081 113.379L411.581 43.3787L407.653 42.6213L394.153 112.621L398.081 113.379ZM409.617 45H430.317V41H409.617V45ZM428.35 43.3597L441.15 113.36L445.085 112.64L432.285 42.6402L428.35 43.3597ZM443.117 111H429.717V115H443.117V111ZM417.545 55.6698L413.645 78.9698L417.59 79.6302L421.49 56.3302L417.545 55.6698ZM413.651 78.9364L411.451 90.8364L415.384 91.5636L417.584 79.6636L413.651 78.9364ZM413.417 93.2H425.917V89.2H413.417V93.2ZM427.881 90.8205L425.581 78.9205L421.654 79.6795L423.954 91.5795L427.881 90.8205ZM425.59 78.9698L421.69 55.6698L417.745 56.3302L421.645 79.6302L425.59 78.9698ZM419.717 54H419.517V58H419.717V54ZM462.541 101.4H460.541V103.4H462.541V101.4ZM471.541 101.4V103.4H472.502L473.102 102.649L471.541 101.4ZM475.941 91.2L474.002 90.7081L473.999 90.7218L473.995 90.7354L475.941 91.2ZM471.741 55L473.288 53.7324L472.687 53H471.741V55ZM462.541 55V53H460.541V55H462.541ZM448.941 113H446.941V115H448.941V113ZM448.941 43V41H446.941V43H448.941ZM477.941 43L479.268 41.504L478.7 41H477.941V43ZM478.841 113V115H479.712L480.305 114.362L478.841 113ZM462.541 103.4H471.541V99.4H462.541V103.4ZM473.102 102.649C475.225 99.9956 476.784 96.2789 477.886 91.6645L473.995 90.7354C472.964 95.0545 471.589 98.1377 469.979 100.151L473.102 102.649ZM477.879 91.6919C479.051 87.072 479.641 82.4735 479.641 77.9H475.641C475.641 82.1265 475.097 86.3946 474.002 90.7081L477.879 91.6919ZM479.641 77.9C479.641 67.2616 477.656 59.0637 473.288 53.7324L470.194 56.2676C473.692 60.5363 475.641 67.6051 475.641 77.9H479.641ZM471.741 53H462.541V57H471.741V53ZM460.541 55V101.4H464.541V55H460.541ZM450.941 113V43H446.941V113H450.941ZM448.941 45H477.941V41H448.941V45ZM476.613 44.496C485.591 52.462 490.141 63.2845 490.141 77.2H494.141C494.141 62.3155 489.224 50.338 479.268 41.504L476.613 44.496ZM490.141 77.2C490.141 91.0834 485.863 102.513 477.376 111.638L480.305 114.362C489.552 104.42 494.141 91.9833 494.141 77.2H490.141ZM478.841 111H448.941V115H478.841V111ZM513.517 101.4H511.517V103.4H513.517V101.4ZM522.517 101.4V103.4H523.478L524.079 102.649L522.517 101.4ZM526.917 91.2L524.979 90.7081L524.975 90.7218L524.972 90.7354L526.917 91.2ZM522.717 55L524.264 53.7324L523.664 53H522.717V55ZM513.517 55V53H511.517V55H513.517ZM499.917 113H497.917V115H499.917V113ZM499.917 43V41H497.917V43H499.917ZM528.917 43L530.245 41.504L529.677 41H528.917V43ZM529.817 113V115H530.688L531.282 114.362L529.817 113ZM513.517 103.4H522.517V99.4H513.517V103.4ZM524.079 102.649C526.202 99.9956 527.761 96.2789 528.862 91.6645L524.972 90.7354C523.94 95.0545 522.566 98.1377 520.955 100.151L524.079 102.649ZM528.856 91.6919C530.028 87.072 530.617 82.4735 530.617 77.9H526.617C526.617 82.1265 526.073 86.3946 524.979 90.7081L528.856 91.6919ZM530.617 77.9C530.617 67.2616 528.633 59.0637 524.264 53.7324L521.17 56.2676C524.668 60.5363 526.617 67.6051 526.617 77.9H530.617ZM522.717 53H513.517V57H522.717V53ZM511.517 55V101.4H515.517V55H511.517ZM501.917 113V43H497.917V113H501.917ZM499.917 45H528.917V41H499.917V45ZM527.59 44.496C536.567 52.462 541.117 63.2845 541.117 77.2H545.117C545.117 62.3155 540.2 50.338 530.245 41.504L527.59 44.496ZM541.117 77.2C541.117 91.0834 536.839 102.513 528.353 111.638L531.282 114.362C540.528 104.42 545.117 91.9833 545.117 77.2H541.117ZM529.817 111H499.917V115H529.817V111ZM550.894 43V41H548.894V43H550.894ZM577.494 43L578.126 41.1026L577.818 41H577.494V43ZM588.194 50.8L586.611 52.0221L586.623 52.0376L586.635 52.0528L588.194 50.8ZM582.094 84.3L581.072 82.5807L579.663 83.418L580.207 84.9639L582.094 84.3ZM592.194 113V115H595.018L594.08 112.336L592.194 113ZM578.194 113L576.296 113.632L576.752 115H578.194V113ZM569.694 87.5L571.591 86.8675L571.135 85.5H569.694V87.5ZM564.394 87.5V85.5H562.394V87.5H564.394ZM564.394 113V115H566.394V113H564.394ZM550.894 113H548.894V115H550.894V113ZM564.394 55V53H562.394V55H564.394ZM564.394 76.3H562.394V78.3H564.394V76.3ZM572.994 76.3V78.3H573.226L573.452 78.2468L572.994 76.3ZM576.694 72.9L575.038 71.7783L575.034 71.7844L575.03 71.7906L576.694 72.9ZM576.994 58.5L575.24 59.4617L575.252 59.4831L575.264 59.5043L576.994 58.5ZM573.594 55L574.052 53.0532L573.826 53H573.594V55ZM550.894 45H577.494V41H550.894V45ZM576.861 44.8974C580.652 46.1611 583.899 48.5089 586.611 52.0221L589.777 49.5779C586.622 45.4911 582.735 42.6389 578.126 41.1026L576.861 44.8974ZM586.635 52.0528C589.31 55.3814 590.694 59.5211 590.694 64.6H594.694C594.694 58.7456 593.078 53.6852 589.753 49.5472L586.635 52.0528ZM590.694 64.6C590.694 72.9018 587.471 78.7775 581.072 82.5807L583.116 86.0193C590.85 81.4225 594.694 74.1648 594.694 64.6H590.694ZM580.207 84.9639L590.307 113.664L594.08 112.336L583.98 83.6361L580.207 84.9639ZM592.194 111H578.194V115H592.194V111ZM580.091 112.368L571.591 86.8675L567.796 88.1325L576.296 113.632L580.091 112.368ZM569.694 85.5H564.394V89.5H569.694V85.5ZM562.394 87.5V113H566.394V87.5H562.394ZM564.394 111H550.894V115H564.394V111ZM552.894 113V43H548.894V113H552.894ZM562.394 55V76.3H566.394V55H562.394ZM564.394 78.3H572.994V74.3H564.394V78.3ZM573.452 78.2468C575.392 77.7903 576.997 76.0514 578.358 74.0094L575.03 71.7906C573.724 73.7486 572.862 74.2764 572.536 74.3532L573.452 78.2468ZM578.35 74.0217C579.995 71.5925 580.794 68.7935 580.794 65.7H576.794C576.794 68.0731 576.192 70.0741 575.038 71.7783L578.35 74.0217ZM580.794 65.7C580.794 62.6654 580.125 59.9091 578.723 57.4957L575.264 59.5043C576.263 61.2242 576.794 63.2679 576.794 65.7H580.794ZM578.747 57.5383C577.586 55.4206 576.09 53.5327 574.052 53.0532L573.136 56.9468C573.364 57.0007 574.135 57.446 575.24 59.4617L578.747 57.5383ZM573.594 53H564.394V57H573.594V53ZM599.917 113H597.917V115H599.917V113ZM599.917 43V41H597.917V43H599.917ZM635.817 43H637.817V41H635.817V43ZM635.817 55V57H637.817V55H635.817ZM613.617 55V53H611.617V55H613.617ZM613.617 71.7H611.617V73.7H613.617V71.7ZM633.417 71.7H635.417V69.7H633.417V71.7ZM633.417 83.3V85.3H635.417V83.3H633.417ZM613.617 83.3V81.3H611.617V83.3H613.617ZM613.617 101.4H611.617V103.4H613.617V101.4ZM636.217 101.4H638.217V99.4H636.217V101.4ZM636.217 113V115H638.217V113H636.217ZM601.917 113V43H597.917V113H601.917ZM599.917 45H635.817V41H599.917V45ZM633.817 43V55H637.817V43H633.817ZM635.817 53H613.617V57H635.817V53ZM611.617 55V71.7H615.617V55H611.617ZM613.617 73.7H633.417V69.7H613.617V73.7ZM631.417 71.7V83.3H635.417V71.7H631.417ZM633.417 81.3H613.617V85.3H633.417V81.3ZM611.617 83.3V101.4H615.617V83.3H611.617ZM613.617 103.4H636.217V99.4H613.617V103.4ZM634.217 101.4V113H638.217V101.4H634.217ZM636.217 111H599.917V115H636.217V111ZM649.384 43V41H648.976L648.601 41.1595L649.384 43ZM673.384 43H675.384V41H673.384V43ZM673.384 55V57H675.384V55H673.384ZM654.184 55V53H652.948L652.395 54.1056L654.184 55ZM653.884 55.6L652.095 54.7056L651.626 55.6425L652.13 56.5611L653.884 55.6ZM669.884 84.8L668.13 85.7611L668.136 85.773L669.884 84.8ZM668.084 113V115H668.715L669.232 114.637L668.084 113ZM641.584 113H639.584V115H641.584V113ZM641.584 101.4V99.4H639.584V101.4H641.584ZM662.284 101.4V103.4H663.52L664.072 102.294L662.284 101.4ZM662.584 100.8L664.372 101.694L664.845 100.749L664.331 99.8264L662.584 100.8ZM644.584 68.5L642.836 69.4734L642.837 69.4736L644.584 68.5ZM649.384 45H673.384V41H649.384V45ZM671.384 43V55H675.384V43H671.384ZM673.384 53H654.184V57H673.384V53ZM652.395 54.1056L652.095 54.7056L655.672 56.4944L655.972 55.8944L652.395 54.1056ZM652.13 56.5611L668.13 85.7611L671.638 83.8389L655.638 54.6389L652.13 56.5611ZM668.136 85.773C671.39 91.6173 672.784 95.69 672.784 98.2H676.784C676.784 94.5766 674.91 89.716 671.631 83.827L668.136 85.773ZM672.784 98.2C672.784 104.454 670.741 108.693 666.935 111.363L669.232 114.637C674.359 111.041 676.784 105.413 676.784 98.2H672.784ZM668.084 111H641.584V115H668.084V111ZM643.584 113V101.4H639.584V113H643.584ZM641.584 103.4H662.284V99.4H641.584V103.4ZM664.072 102.294L664.372 101.694L660.795 99.9056L660.495 100.506L664.072 102.294ZM664.331 99.8264L646.331 67.5264L642.837 69.4736L660.837 101.774L664.331 99.8264ZM646.331 67.5266C643.781 62.9497 642.684 59.5151 642.684 57.1H638.684C638.684 60.5516 640.186 64.7169 642.836 69.4734L646.331 67.5266ZM642.684 57.1C642.684 53.9102 643.35 51.3881 644.561 49.4252C645.764 47.4757 647.591 45.9356 650.166 44.8405L648.601 41.1595C645.376 42.5311 642.854 44.5743 641.157 47.3248C639.468 50.0619 638.684 53.3565 638.684 57.1H642.684ZM688.153 43V41H687.746L687.37 41.1595L688.153 43ZM712.153 43H714.153V41H712.153V43ZM712.153 55V57H714.153V55H712.153ZM692.953 55V53H691.717L691.164 54.1056L692.953 55ZM692.653 55.6L690.864 54.7056L690.396 55.6425L690.899 56.5611L692.653 55.6ZM708.653 84.8L706.899 85.7611L706.906 85.773L708.653 84.8ZM706.853 113V115H707.485L708.002 114.637L706.853 113ZM680.353 113H678.353V115H680.353V113ZM680.353 101.4V99.4H678.353V101.4H680.353ZM701.053 101.4V103.4H702.289L702.842 102.294L701.053 101.4ZM701.353 100.8L703.142 101.694L703.615 100.749L703.1 99.8264L701.353 100.8ZM683.353 68.5L681.606 69.4734L681.606 69.4736L683.353 68.5ZM688.153 45H712.153V41H688.153V45ZM710.153 43V55H714.153V43H710.153ZM712.153 53H692.953V57H712.153V53ZM691.164 54.1056L690.864 54.7056L694.442 56.4944L694.742 55.8944L691.164 54.1056ZM690.899 56.5611L706.899 85.7611L710.407 83.8389L694.407 54.6389L690.899 56.5611ZM706.906 85.773C710.16 91.6173 711.553 95.69 711.553 98.2H715.553C715.553 94.5766 713.68 89.716 710.401 83.827L706.906 85.773ZM711.553 98.2C711.553 104.454 709.511 108.693 705.705 111.363L708.002 114.637C713.129 111.041 715.553 105.413 715.553 98.2H711.553ZM706.853 111H680.353V115H706.853V111ZM682.353 113V101.4H678.353V113H682.353ZM680.353 103.4H701.053V99.4H680.353V103.4ZM702.842 102.294L703.142 101.694L699.564 99.9056L699.264 100.506L702.842 102.294ZM703.1 99.8264L685.1 67.5264L681.606 69.4736L699.606 101.774L703.1 99.8264ZM685.1 67.5266C682.55 62.9497 681.453 59.5151 681.453 57.1H677.453C677.453 60.5516 678.956 64.7169 681.606 69.4734L685.1 67.5266ZM681.453 57.1C681.453 53.9102 682.119 51.3881 683.33 49.4252C684.533 47.4757 686.361 45.9356 688.936 44.8405L687.37 41.1595C684.145 42.5311 681.623 44.5743 679.926 47.3248C678.237 50.0619 677.453 53.3565 677.453 57.1H681.453Z" fill="black" mask="url(#path-1-outside-1_328_190)"/>
<mask id="path-3-outside-2_328_190" maskUnits="userSpaceOnUse" x="1" y="36" width="715" height="74" fill="black">
<rect fill="white" x="1" y="36" width="715" height="74"/>
<path d="M24.2 96.4H41.8V108H16.4C12 103.867 8.66667 98.6333 6.4 92.3C4.13333 85.9667 3 79.4667 3 72.8C3 66.0667 4.26667 59.6 6.8 53.4C9.33333 47.2 13.1 42.0667 18.1 38H41.8V50H24.2C22.4 52.0667 20.8333 55.4 19.5 60C18.2333 64.6 17.6 69 17.6 73.2C17.6 77.4 18.2333 81.8 19.5 86.4C20.8333 91 22.4 94.3333 24.2 96.4ZM79.1969 38C83.8635 41.8 87.3302 46.9 89.5969 53.3C91.8635 59.7 92.9969 66.3 92.9969 73.1C92.9969 79.8333 91.8969 86.2333 89.6969 92.3C87.4969 98.3667 83.9969 103.6 79.1969 108H58.5969C53.7969 103.6 50.2969 98.3667 48.0969 92.3C45.8969 86.2333 44.7969 79.8333 44.7969 73.1C44.7969 66.3 45.9302 59.7 48.1969 53.3C50.4635 46.9 53.9302 41.8 58.5969 38H79.1969ZM65.2969 96.4H72.4969C74.1635 94.4667 75.5635 91.3333 76.6969 87C77.8969 82.6 78.4969 77.9667 78.4969 73.1C78.4969 68.2333 77.9302 63.6667 76.7969 59.4C75.6635 55.0667 74.2635 51.9333 72.5969 50H65.2969C63.6302 51.9333 62.1969 55.0667 60.9969 59.4C59.8635 63.6667 59.2969 68.2333 59.2969 73.1C59.2969 77.9667 59.8635 82.6 60.9969 87C62.1969 91.3333 63.6302 94.4667 65.2969 96.4ZM131.996 108L113.296 69.3L112.796 69.5L113.396 81.3V108H100.796V38H110.896L129.296 78.2L129.796 78L128.696 65.7V38H141.296V108H131.996ZM162.194 50H147.094V38H190.894V50H175.794V108H162.194V50ZM196.695 38H223.295C227.495 39.4 231.061 42 233.995 45.8C236.995 49.5333 238.495 54.1333 238.495 59.6C238.495 68.5333 234.961 75.1 227.895 79.3L237.995 108H223.995L215.495 82.5H210.195V108H196.695V38ZM210.195 50V71.3H218.795C219.928 71.0333 221.161 69.9 222.495 67.9C223.895 65.8333 224.595 63.4333 224.595 60.7C224.595 57.9667 223.995 55.5667 222.795 53.5C221.661 51.4333 220.528 50.2667 219.395 50H210.195ZM275.518 108L273.418 96.9H257.618L255.518 108H241.918L255.418 38H276.118L288.918 108H275.518ZM265.318 51L261.418 74.3L259.218 86.2H271.718L269.418 74.3L265.518 51H265.318ZM313.165 96.4H330.765V108H305.365C300.965 103.867 297.632 98.6333 295.365 92.3C293.098 85.9667 291.965 79.4667 291.965 72.8C291.965 66.0667 293.232 59.6 295.765 53.4C298.298 47.2 302.065 42.0667 307.065 38H330.765V50H313.165C311.365 52.0667 309.798 55.4 308.465 60C307.198 64.6 306.565 69 306.565 73.2C306.565 77.4 307.198 81.8 308.465 86.4C309.798 91 311.365 94.3333 313.165 96.4ZM349.401 50H334.301V38H378.101V50H363.001V108H349.401V50ZM429.717 108L427.617 96.9H411.817L409.717 108H396.117L409.617 38H430.317L443.117 108H429.717ZM419.517 51L415.617 74.3L413.417 86.2H425.917L423.617 74.3L419.717 51H419.517ZM462.541 96.4H471.541C473.407 94.0667 474.874 90.6667 475.941 86.2C477.074 81.7333 477.641 77.3 477.641 72.9C477.641 62.4333 475.674 54.8 471.741 50H462.541V96.4ZM448.941 108V38H477.941C487.407 46.4 492.141 57.8 492.141 72.2C492.141 86.5333 487.707 98.4667 478.841 108H448.941ZM513.517 96.4H522.517C524.384 94.0667 525.851 90.6667 526.917 86.2C528.051 81.7333 528.617 77.3 528.617 72.9C528.617 62.4333 526.651 54.8 522.717 50H513.517V96.4ZM499.917 108V38H528.917C538.384 46.4 543.117 57.8 543.117 72.2C543.117 86.5333 538.684 98.4667 529.817 108H499.917ZM550.894 38H577.494C581.694 39.4 585.26 42 588.194 45.8C591.194 49.5333 592.694 54.1333 592.694 59.6C592.694 68.5333 589.16 75.1 582.094 79.3L592.194 108H578.194L569.694 82.5H564.394V108H550.894V38ZM564.394 50V71.3H572.994C574.127 71.0333 575.36 69.9 576.694 67.9C578.094 65.8333 578.794 63.4333 578.794 60.7C578.794 57.9667 578.194 55.5667 576.994 53.5C575.86 51.4333 574.727 50.2667 573.594 50H564.394ZM599.917 108V38H635.817V50H613.617V66.7H633.417V78.3H613.617V96.4H636.217V108H599.917ZM649.384 38H673.384V50H654.184L653.884 50.6L669.884 79.8C673.15 85.6667 674.784 90.1333 674.784 93.2C674.784 99.9333 672.55 104.867 668.084 108H641.584V96.4H662.284L662.584 95.8L644.584 63.5C641.984 58.8333 640.684 55.0333 640.684 52.1C640.684 45.1667 643.584 40.4667 649.384 38ZM688.153 38H712.153V50H692.953L692.653 50.6L708.653 79.8C711.92 85.6667 713.553 90.1333 713.553 93.2C713.553 99.9333 711.32 104.867 706.853 108H680.353V96.4H701.053L701.353 95.8L683.353 63.5C680.753 58.8333 679.453 55.0333 679.453 52.1C679.453 45.1667 682.353 40.4667 688.153 38Z"/>
</mask>
<path d="M24.2 96.4H41.8V108H16.4C12 103.867 8.66667 98.6333 6.4 92.3C4.13333 85.9667 3 79.4667 3 72.8C3 66.0667 4.26667 59.6 6.8 53.4C9.33333 47.2 13.1 42.0667 18.1 38H41.8V50H24.2C22.4 52.0667 20.8333 55.4 19.5 60C18.2333 64.6 17.6 69 17.6 73.2C17.6 77.4 18.2333 81.8 19.5 86.4C20.8333 91 22.4 94.3333 24.2 96.4ZM79.1969 38C83.8635 41.8 87.3302 46.9 89.5969 53.3C91.8635 59.7 92.9969 66.3 92.9969 73.1C92.9969 79.8333 91.8969 86.2333 89.6969 92.3C87.4969 98.3667 83.9969 103.6 79.1969 108H58.5969C53.7969 103.6 50.2969 98.3667 48.0969 92.3C45.8969 86.2333 44.7969 79.8333 44.7969 73.1C44.7969 66.3 45.9302 59.7 48.1969 53.3C50.4635 46.9 53.9302 41.8 58.5969 38H79.1969ZM65.2969 96.4H72.4969C74.1635 94.4667 75.5635 91.3333 76.6969 87C77.8969 82.6 78.4969 77.9667 78.4969 73.1C78.4969 68.2333 77.9302 63.6667 76.7969 59.4C75.6635 55.0667 74.2635 51.9333 72.5969 50H65.2969C63.6302 51.9333 62.1969 55.0667 60.9969 59.4C59.8635 63.6667 59.2969 68.2333 59.2969 73.1C59.2969 77.9667 59.8635 82.6 60.9969 87C62.1969 91.3333 63.6302 94.4667 65.2969 96.4ZM131.996 108L113.296 69.3L112.796 69.5L113.396 81.3V108H100.796V38H110.896L129.296 78.2L129.796 78L128.696 65.7V38H141.296V108H131.996ZM162.194 50H147.094V38H190.894V50H175.794V108H162.194V50ZM196.695 38H223.295C227.495 39.4 231.061 42 233.995 45.8C236.995 49.5333 238.495 54.1333 238.495 59.6C238.495 68.5333 234.961 75.1 227.895 79.3L237.995 108H223.995L215.495 82.5H210.195V108H196.695V38ZM210.195 50V71.3H218.795C219.928 71.0333 221.161 69.9 222.495 67.9C223.895 65.8333 224.595 63.4333 224.595 60.7C224.595 57.9667 223.995 55.5667 222.795 53.5C221.661 51.4333 220.528 50.2667 219.395 50H210.195ZM275.518 108L273.418 96.9H257.618L255.518 108H241.918L255.418 38H276.118L288.918 108H275.518ZM265.318 51L261.418 74.3L259.218 86.2H271.718L269.418 74.3L265.518 51H265.318ZM313.165 96.4H330.765V108H305.365C300.965 103.867 297.632 98.6333 295.365 92.3C293.098 85.9667 291.965 79.4667 291.965 72.8C291.965 66.0667 293.232 59.6 295.765 53.4C298.298 47.2 302.065 42.0667 307.065 38H330.765V50H313.165C311.365 52.0667 309.798 55.4 308.465 60C307.198 64.6 306.565 69 306.565 73.2C306.565 77.4 307.198 81.8 308.465 86.4C309.798 91 311.365 94.3333 313.165 96.4ZM349.401 50H334.301V38H378.101V50H363.001V108H349.401V50ZM429.717 108L427.617 96.9H411.817L409.717 108H396.117L409.617 38H430.317L443.117 108H429.717ZM419.517 51L415.617 74.3L413.417 86.2H425.917L423.617 74.3L419.717 51H419.517ZM462.541 96.4H471.541C473.407 94.0667 474.874 90.6667 475.941 86.2C477.074 81.7333 477.641 77.3 477.641 72.9C477.641 62.4333 475.674 54.8 471.741 50H462.541V96.4ZM448.941 108V38H477.941C487.407 46.4 492.141 57.8 492.141 72.2C492.141 86.5333 487.707 98.4667 478.841 108H448.941ZM513.517 96.4H522.517C524.384 94.0667 525.851 90.6667 526.917 86.2C528.051 81.7333 528.617 77.3 528.617 72.9C528.617 62.4333 526.651 54.8 522.717 50H513.517V96.4ZM499.917 108V38H528.917C538.384 46.4 543.117 57.8 543.117 72.2C543.117 86.5333 538.684 98.4667 529.817 108H499.917ZM550.894 38H577.494C581.694 39.4 585.26 42 588.194 45.8C591.194 49.5333 592.694 54.1333 592.694 59.6C592.694 68.5333 589.16 75.1 582.094 79.3L592.194 108H578.194L569.694 82.5H564.394V108H550.894V38ZM564.394 50V71.3H572.994C574.127 71.0333 575.36 69.9 576.694 67.9C578.094 65.8333 578.794 63.4333 578.794 60.7C578.794 57.9667 578.194 55.5667 576.994 53.5C575.86 51.4333 574.727 50.2667 573.594 50H564.394ZM599.917 108V38H635.817V50H613.617V66.7H633.417V78.3H613.617V96.4H636.217V108H599.917ZM649.384 38H673.384V50H654.184L653.884 50.6L669.884 79.8C673.15 85.6667 674.784 90.1333 674.784 93.2C674.784 99.9333 672.55 104.867 668.084 108H641.584V96.4H662.284L662.584 95.8L644.584 63.5C641.984 58.8333 640.684 55.0333 640.684 52.1C640.684 45.1667 643.584 40.4667 649.384 38ZM688.153 38H712.153V50H692.953L692.653 50.6L708.653 79.8C711.92 85.6667 713.553 90.1333 713.553 93.2C713.553 99.9333 711.32 104.867 706.853 108H680.353V96.4H701.053L701.353 95.8L683.353 63.5C680.753 58.8333 679.453 55.0333 679.453 52.1C679.453 45.1667 682.353 40.4667 688.153 38Z" fill="white"/>
<path d="M24.2 96.4L22.6918 97.7136L23.2897 98.4H24.2V96.4ZM41.8 96.4H43.8V94.4H41.8V96.4ZM41.8 108V110H43.8V108H41.8ZM16.4 108L15.0306 109.458L15.6079 110H16.4V108ZM6.4 92.3L8.28304 91.6261L6.4 92.3ZM6.8 53.4L8.65141 54.1565L8.65141 54.1565L6.8 53.4ZM18.1 38V36H17.3894L16.838 36.4484L18.1 38ZM41.8 38H43.8V36H41.8V38ZM41.8 50V52H43.8V50H41.8ZM24.2 50V48H23.2897L22.6918 48.6864L24.2 50ZM19.5 60L17.5791 59.4432L17.5753 59.4561L17.5718 59.469L19.5 60ZM19.5 86.4L17.5718 86.931L17.5753 86.9439L17.5791 86.9568L19.5 86.4ZM24.2 98.4H41.8V94.4H24.2V98.4ZM39.8 96.4V108H43.8V96.4H39.8ZM41.8 106H16.4V110H41.8V106ZM17.7694 106.542C13.6256 102.65 10.4553 97.6957 8.28304 91.6261L4.51697 92.9739C6.87801 99.571 10.3744 105.084 15.0306 109.458L17.7694 106.542ZM8.28304 91.6261C6.09306 85.507 5 79.2349 5 72.8H1C1 79.6985 2.17361 86.4263 4.51697 92.9739L8.28304 91.6261ZM5 72.8C5 66.3247 6.21674 60.115 8.65141 54.1565L4.94859 52.6435C2.3166 59.085 1 65.8087 1 72.8H5ZM8.65141 54.1565C11.0631 48.2541 14.6323 43.3984 19.362 39.5516L16.838 36.4484C11.5677 40.735 7.60353 46.1459 4.94859 52.6435L8.65141 54.1565ZM18.1 40H41.8V36H18.1V40ZM39.8 38V50H43.8V38H39.8ZM41.8 48H24.2V52H41.8V48ZM22.6918 48.6864C20.608 51.079 18.9416 54.7425 17.5791 59.4432L21.4209 60.5568C22.7251 56.0575 24.192 53.0543 25.7082 51.3136L22.6918 48.6864ZM17.5718 59.469C16.2638 64.219 15.6 68.7982 15.6 73.2H19.6C19.6 69.2018 20.2029 64.981 21.4282 60.531L17.5718 59.469ZM15.6 73.2C15.6 77.6018 16.2638 82.181 17.5718 86.931L21.4282 85.869C20.2029 81.419 19.6 77.1982 19.6 73.2H15.6ZM17.5791 86.9568C18.9416 91.6575 20.608 95.321 22.6918 97.7136L25.7082 95.0864C24.192 93.3457 22.7251 90.3425 21.4209 85.8432L17.5791 86.9568ZM79.1969 38L80.4597 36.4491L79.9082 36H79.1969V38ZM89.5969 53.3L87.7116 53.9677L87.7116 53.9677L89.5969 53.3ZM89.6969 92.3L91.5771 92.9818L91.5771 92.9818L89.6969 92.3ZM79.1969 108V110H79.9748L80.5483 109.474L79.1969 108ZM58.5969 108L57.2454 109.474L57.8189 110H58.5969V108ZM48.1969 53.3L46.3116 52.6323L46.3116 52.6323L48.1969 53.3ZM58.5969 38V36H57.8856L57.334 36.4491L58.5969 38ZM65.2969 96.4L63.7821 97.7059L64.3804 98.4H65.2969V96.4ZM72.4969 96.4V98.4H73.4133L74.0117 97.7059L72.4969 96.4ZM76.6969 87L74.7673 86.4738L74.7646 86.4838L74.762 86.4939L76.6969 87ZM76.7969 59.4L74.8619 59.9061L74.8639 59.9134L76.7969 59.4ZM72.5969 50L74.1117 48.6941L73.5133 48H72.5969V50ZM65.2969 50V48H64.3804L63.7821 48.6941L65.2969 50ZM60.9969 59.4L59.0694 58.8662L59.0666 58.8764L59.0639 58.8866L60.9969 59.4ZM60.9969 87L59.0601 87.4989L59.0646 87.5164L59.0694 87.5338L60.9969 87ZM77.934 39.5509C82.2809 43.0905 85.5514 47.8682 87.7116 53.9677L91.4821 52.6323C89.109 45.9318 85.4462 40.5095 80.4597 36.4491L77.934 39.5509ZM87.7116 53.9677C89.9022 60.1529 90.9969 66.5271 90.9969 73.1H94.9969C94.9969 66.0729 93.8249 59.2471 91.4821 52.6323L87.7116 53.9677ZM90.9969 73.1C90.9969 79.611 89.934 85.7795 87.8167 91.6182L91.5771 92.9818C93.8597 86.6872 94.9969 80.0556 94.9969 73.1H90.9969ZM87.8167 91.6182C85.7276 97.3791 82.4102 102.341 77.8454 106.526L80.5483 109.474C85.5836 104.859 89.2662 99.3542 91.5771 92.9818L87.8167 91.6182ZM79.1969 106H58.5969V110H79.1969V106ZM59.9483 106.526C55.3836 102.341 52.0662 97.3791 49.9771 91.6182L46.2167 92.9818C48.5276 99.3542 52.2102 104.859 57.2454 109.474L59.9483 106.526ZM49.9771 91.6182C47.8597 85.7795 46.7969 79.611 46.7969 73.1H42.7969C42.7969 80.0556 43.934 86.6872 46.2167 92.9818L49.9771 91.6182ZM46.7969 73.1C46.7969 66.5271 47.8915 60.1529 50.0821 53.9677L46.3116 52.6323C43.9689 59.2471 42.7969 66.0729 42.7969 73.1H46.7969ZM50.0821 53.9677C52.2424 47.8682 55.5128 43.0905 59.8597 39.5509L57.334 36.4491C52.3476 40.5095 48.6847 45.9318 46.3116 52.6323L50.0821 53.9677ZM58.5969 40H79.1969V36H58.5969V40ZM65.2969 98.4H72.4969V94.4H65.2969V98.4ZM74.0117 97.7059C75.9754 95.428 77.4712 91.9437 78.6318 87.5061L74.762 86.4939C73.6559 90.723 72.3517 93.5053 70.9821 95.0941L74.0117 97.7059ZM78.6264 87.5262C79.8762 82.9436 80.4969 78.1325 80.4969 73.1H76.4969C76.4969 77.8008 75.9175 82.2564 74.7673 86.4738L78.6264 87.5262ZM80.4969 73.1C80.4969 68.0775 79.912 63.3369 78.7298 58.8866L74.8639 59.9134C75.9485 63.9965 76.4969 68.3891 76.4969 73.1H80.4969ZM78.7318 58.8939C77.5712 54.4563 76.0754 50.972 74.1117 48.6941L71.0821 51.3059C72.4517 52.8947 73.7559 55.677 74.862 59.9061L78.7318 58.8939ZM72.5969 48H65.2969V52H72.5969V48ZM63.7821 48.6941C61.8275 50.9614 60.297 54.4332 59.0694 58.8662L62.9243 59.9338C64.0967 55.7001 65.4329 52.9053 66.8117 51.3059L63.7821 48.6941ZM59.0639 58.8866C57.8818 63.3369 57.2969 68.0775 57.2969 73.1H61.2969C61.2969 68.3891 61.8453 63.9965 62.9298 59.9134L59.0639 58.8866ZM57.2969 73.1C57.2969 78.1231 57.8819 82.9248 59.0601 87.4989L62.9337 86.5011C61.8452 82.2752 61.2969 77.8103 61.2969 73.1H57.2969ZM59.0694 87.5338C60.297 91.9668 61.8275 95.4386 63.7821 97.7059L66.8117 95.0941C65.4329 93.4947 64.0967 90.6999 62.9243 86.4662L59.0694 87.5338ZM131.996 108L130.195 108.87L130.741 110H131.996V108ZM113.296 69.3L115.097 68.4298L114.285 66.7502L112.553 67.443L113.296 69.3ZM112.796 69.5L112.053 67.643L110.726 68.1739L110.799 69.6016L112.796 69.5ZM113.396 81.3H115.396V81.2492L115.394 81.1984L113.396 81.3ZM113.396 108V110H115.396V108H113.396ZM100.796 108H98.7961V110H100.796V108ZM100.796 38V36H98.7961V38H100.796ZM110.896 38L112.715 37.1676L112.18 36H110.896V38ZM129.296 78.2L127.478 79.0324L128.27 80.7644L130.039 80.057L129.296 78.2ZM129.796 78L130.539 79.857L131.921 79.3042L131.788 77.8218L129.796 78ZM128.696 65.7H126.696V65.7893L126.704 65.8782L128.696 65.7ZM128.696 38V36H126.696V38H128.696ZM141.296 38H143.296V36H141.296V38ZM141.296 108V110H143.296V108H141.296ZM133.797 107.13L115.097 68.4298L111.495 70.1701L130.195 108.87L133.797 107.13ZM112.553 67.443L112.053 67.643L113.539 71.357L114.039 71.157L112.553 67.443ZM110.799 69.6016L111.399 81.4016L115.394 81.1984L114.794 69.3984L110.799 69.6016ZM111.396 81.3V108H115.396V81.3H111.396ZM113.396 106H100.796V110H113.396V106ZM102.796 108V38H98.7961V108H102.796ZM100.796 40H110.896V36H100.796V40ZM109.078 38.8324L127.478 79.0324L131.115 77.3676L112.715 37.1676L109.078 38.8324ZM130.039 80.057L130.539 79.857L129.053 76.143L128.553 76.343L130.039 80.057ZM131.788 77.8218L130.688 65.5218L126.704 65.8782L127.804 78.1781L131.788 77.8218ZM130.696 65.7V38H126.696V65.7H130.696ZM128.696 40H141.296V36H128.696V40ZM139.296 38V108H143.296V38H139.296ZM141.296 106H131.996V110H141.296V106ZM162.194 50H164.194V48H162.194V50ZM147.094 50H145.094V52H147.094V50ZM147.094 38V36H145.094V38H147.094ZM190.894 38H192.894V36H190.894V38ZM190.894 50V52H192.894V50H190.894ZM175.794 50V48H173.794V50H175.794ZM175.794 108V110H177.794V108H175.794ZM162.194 108H160.194V110H162.194V108ZM162.194 48H147.094V52H162.194V48ZM149.094 50V38H145.094V50H149.094ZM147.094 40H190.894V36H147.094V40ZM188.894 38V50H192.894V38H188.894ZM190.894 48H175.794V52H190.894V48ZM173.794 50V108H177.794V50H173.794ZM175.794 106H162.194V110H175.794V106ZM164.194 108V50H160.194V108H164.194ZM196.695 38V36H194.695V38H196.695ZM223.295 38L223.927 36.1026L223.619 36H223.295V38ZM233.995 45.8L232.411 47.0221L232.423 47.0376L232.436 47.0528L233.995 45.8ZM227.895 79.3L226.873 77.5807L225.464 78.418L226.008 79.9639L227.895 79.3ZM237.995 108V110H240.819L239.881 107.336L237.995 108ZM223.995 108L222.097 108.632L222.553 110H223.995V108ZM215.495 82.5L217.392 81.8675L216.936 80.5H215.495V82.5ZM210.195 82.5V80.5H208.195V82.5H210.195ZM210.195 108V110H212.195V108H210.195ZM196.695 108H194.695V110H196.695V108ZM210.195 50V48H208.195V50H210.195ZM210.195 71.3H208.195V73.3H210.195V71.3ZM218.795 71.3V73.3H219.027L219.253 73.2468L218.795 71.3ZM222.495 67.9L220.839 66.7783L220.835 66.7844L220.83 66.7906L222.495 67.9ZM222.795 53.5L221.041 54.4617L221.053 54.4831L221.065 54.5043L222.795 53.5ZM219.395 50L219.853 48.0532L219.627 48H219.395V50ZM196.695 40H223.295V36H196.695V40ZM222.662 39.8974C226.453 41.1611 229.699 43.5089 232.411 47.0221L235.578 44.5779C232.423 40.4911 228.536 37.6389 223.927 36.1026L222.662 39.8974ZM232.436 47.0528C235.11 50.3814 236.495 54.5211 236.495 59.6H240.495C240.495 53.7456 238.879 48.6852 235.554 44.5472L232.436 47.0528ZM236.495 59.6C236.495 67.9018 233.272 73.7775 226.873 77.5807L228.916 81.0193C236.651 76.4225 240.495 69.1648 240.495 59.6H236.495ZM226.008 79.9639L236.108 108.664L239.881 107.336L229.781 78.6361L226.008 79.9639ZM237.995 106H223.995V110H237.995V106ZM225.892 107.368L217.392 81.8675L213.597 83.1325L222.097 108.632L225.892 107.368ZM215.495 80.5H210.195V84.5H215.495V80.5ZM208.195 82.5V108H212.195V82.5H208.195ZM210.195 106H196.695V110H210.195V106ZM198.695 108V38H194.695V108H198.695ZM208.195 50V71.3H212.195V50H208.195ZM210.195 73.3H218.795V69.3H210.195V73.3ZM219.253 73.2468C221.193 72.7903 222.797 71.0514 224.159 69.0094L220.83 66.7906C219.525 68.7486 218.663 69.2764 218.336 69.3532L219.253 73.2468ZM224.15 69.0217C225.796 66.5925 226.595 63.7935 226.595 60.7H222.595C222.595 63.0731 221.993 65.0741 220.839 66.7783L224.15 69.0217ZM226.595 60.7C226.595 57.6654 225.925 54.9091 224.524 52.4957L221.065 54.5043C222.064 56.2242 222.595 58.2679 222.595 60.7H226.595ZM224.548 52.5383C223.387 50.4206 221.89 48.5327 219.853 48.0532L218.936 51.9468C219.165 52.0007 219.936 52.446 221.041 54.4617L224.548 52.5383ZM219.395 48H210.195V52H219.395V48ZM275.518 108L273.553 108.372L273.861 110H275.518V108ZM273.418 96.9L275.383 96.5282L275.075 94.9H273.418V96.9ZM257.618 96.9V94.9H255.961L255.653 96.5282L257.618 96.9ZM255.518 108V110H257.175L257.483 108.372L255.518 108ZM241.918 108L239.954 107.621L239.495 110H241.918V108ZM255.418 38V36H253.767L253.454 37.6213L255.418 38ZM276.118 38L278.085 37.6402L277.785 36H276.118V38ZM288.918 108V110H291.317L290.885 107.64L288.918 108ZM265.318 51V49H263.625L263.345 50.6698L265.318 51ZM261.418 74.3L263.385 74.6636L263.388 74.6469L263.391 74.6302L261.418 74.3ZM259.218 86.2L257.251 85.8364L256.814 88.2H259.218V86.2ZM271.718 86.2V88.2H274.142L273.682 85.8205L271.718 86.2ZM269.418 74.3L267.445 74.6302L267.45 74.6549L267.454 74.6795L269.418 74.3ZM265.518 51L267.491 50.6698L267.211 49H265.518V51ZM277.483 107.628L275.383 96.5282L271.453 97.2718L273.553 108.372L277.483 107.628ZM273.418 94.9H257.618V98.9H273.418V94.9ZM255.653 96.5282L253.553 107.628L257.483 108.372L259.583 97.2718L255.653 96.5282ZM255.518 106H241.918V110H255.518V106ZM243.882 108.379L257.382 38.3787L253.454 37.6213L239.954 107.621L243.882 108.379ZM255.418 40H276.118V36H255.418V40ZM274.151 38.3597L286.951 108.36L290.885 107.64L278.085 37.6402L274.151 38.3597ZM288.918 106H275.518V110H288.918V106ZM263.345 50.6698L259.445 73.9698L263.391 74.6302L267.291 51.3302L263.345 50.6698ZM259.451 73.9364L257.251 85.8364L261.185 86.5636L263.385 74.6636L259.451 73.9364ZM259.218 88.2H271.718V84.2H259.218V88.2ZM273.682 85.8205L271.382 73.9205L267.454 74.6795L269.754 86.5795L273.682 85.8205ZM271.391 73.9698L267.491 50.6698L263.545 51.3302L267.445 74.6302L271.391 73.9698ZM265.518 49H265.318V53H265.518V49ZM313.165 96.4L311.657 97.7136L312.255 98.4H313.165V96.4ZM330.765 96.4H332.765V94.4H330.765V96.4ZM330.765 108V110H332.765V108H330.765ZM305.365 108L303.995 109.458L304.573 110H305.365V108ZM295.365 92.3L297.248 91.6261L295.365 92.3ZM295.765 53.4L297.616 54.1565L297.616 54.1565L295.765 53.4ZM307.065 38V36H306.354L305.803 36.4484L307.065 38ZM330.765 38H332.765V36H330.765V38ZM330.765 50V52H332.765V50H330.765ZM313.165 50V48H312.255L311.657 48.6864L313.165 50ZM308.465 60L306.544 59.4432L306.54 59.4561L306.537 59.469L308.465 60ZM308.465 86.4L306.537 86.931L306.54 86.9439L306.544 86.9568L308.465 86.4ZM313.165 98.4H330.765V94.4H313.165V98.4ZM328.765 96.4V108H332.765V96.4H328.765ZM330.765 106H305.365V110H330.765V106ZM306.734 106.542C302.59 102.65 299.42 97.6957 297.248 91.6261L293.482 92.9739C295.843 99.571 299.339 105.084 303.995 109.458L306.734 106.542ZM297.248 91.6261C295.058 85.507 293.965 79.2349 293.965 72.8H289.965C289.965 79.6985 291.138 86.4263 293.482 92.9739L297.248 91.6261ZM293.965 72.8C293.965 66.3247 295.182 60.115 297.616 54.1565L293.913 52.6435C291.281 59.085 289.965 65.8087 289.965 72.8H293.965ZM297.616 54.1565C300.028 48.2541 303.597 43.3984 308.327 39.5516L305.803 36.4484C300.533 40.735 296.568 46.1459 293.913 52.6435L297.616 54.1565ZM307.065 40H330.765V36H307.065V40ZM328.765 38V50H332.765V38H328.765ZM330.765 48H313.165V52H330.765V48ZM311.657 48.6864C309.573 51.079 307.906 54.7425 306.544 59.4432L310.386 60.5568C311.69 56.0575 313.157 53.0543 314.673 51.3136L311.657 48.6864ZM306.537 59.469C305.229 64.219 304.565 68.7982 304.565 73.2H308.565C308.565 69.2018 309.168 64.981 310.393 60.531L306.537 59.469ZM304.565 73.2C304.565 77.6018 305.229 82.181 306.537 86.931L310.393 85.869C309.168 81.419 308.565 77.1982 308.565 73.2H304.565ZM306.544 86.9568C307.906 91.6575 309.573 95.321 311.657 97.7136L314.673 95.0864C313.157 93.3457 311.69 90.3425 310.386 85.8432L306.544 86.9568ZM349.401 50H351.401V48H349.401V50ZM334.301 50H332.301V52H334.301V50ZM334.301 38V36H332.301V38H334.301ZM378.101 38H380.101V36H378.101V38ZM378.101 50V52H380.101V50H378.101ZM363.001 50V48H361.001V50H363.001ZM363.001 108V110H365.001V108H363.001ZM349.401 108H347.401V110H349.401V108ZM349.401 48H334.301V52H349.401V48ZM336.301 50V38H332.301V50H336.301ZM334.301 40H378.101V36H334.301V40ZM376.101 38V50H380.101V38H376.101ZM378.101 48H363.001V52H378.101V48ZM361.001 50V108H365.001V50H361.001ZM363.001 106H349.401V110H363.001V106ZM351.401 108V50H347.401V108H351.401ZM429.717 108L427.752 108.372L428.06 110H429.717V108ZM427.617 96.9L429.582 96.5282L429.274 94.9H427.617V96.9ZM411.817 96.9V94.9H410.16L409.852 96.5282L411.817 96.9ZM409.717 108V110H411.374L411.682 108.372L409.717 108ZM396.117 108L394.153 107.621L393.695 110H396.117V108ZM409.617 38V36H407.966L407.653 37.6213L409.617 38ZM430.317 38L432.285 37.6402L431.985 36H430.317V38ZM443.117 108V110H445.516L445.085 107.64L443.117 108ZM419.517 51V49H417.824L417.545 50.6698L419.517 51ZM415.617 74.3L417.584 74.6636L417.587 74.6469L417.59 74.6302L415.617 74.3ZM413.417 86.2L411.451 85.8364L411.014 88.2H413.417V86.2ZM425.917 86.2V88.2H428.341L427.881 85.8205L425.917 86.2ZM423.617 74.3L421.645 74.6302L421.649 74.6549L421.654 74.6795L423.617 74.3ZM419.717 51L421.69 50.6698L421.41 49H419.717V51ZM431.682 107.628L429.582 96.5282L425.652 97.2718L427.752 108.372L431.682 107.628ZM427.617 94.9H411.817V98.9H427.617V94.9ZM409.852 96.5282L407.752 107.628L411.682 108.372L413.782 97.2718L409.852 96.5282ZM409.717 106H396.117V110H409.717V106ZM398.081 108.379L411.581 38.3787L407.653 37.6213L394.153 107.621L398.081 108.379ZM409.617 40H430.317V36H409.617V40ZM428.35 38.3597L441.15 108.36L445.085 107.64L432.285 37.6402L428.35 38.3597ZM443.117 106H429.717V110H443.117V106ZM417.545 50.6698L413.645 73.9698L417.59 74.6302L421.49 51.3302L417.545 50.6698ZM413.651 73.9364L411.451 85.8364L415.384 86.5636L417.584 74.6636L413.651 73.9364ZM413.417 88.2H425.917V84.2H413.417V88.2ZM427.881 85.8205L425.581 73.9205L421.654 74.6795L423.954 86.5795L427.881 85.8205ZM425.59 73.9698L421.69 50.6698L417.745 51.3302L421.645 74.6302L425.59 73.9698ZM419.717 49H419.517V53H419.717V49ZM462.541 96.4H460.541V98.4H462.541V96.4ZM471.541 96.4V98.4H472.502L473.102 97.6494L471.541 96.4ZM475.941 86.2L474.002 85.7081L473.999 85.7218L473.995 85.7354L475.941 86.2ZM471.741 50L473.288 48.7324L472.687 48H471.741V50ZM462.541 50V48H460.541V50H462.541ZM448.941 108H446.941V110H448.941V108ZM448.941 38V36H446.941V38H448.941ZM477.941 38L479.268 36.504L478.7 36H477.941V38ZM478.841 108V110H479.712L480.305 109.362L478.841 108ZM462.541 98.4H471.541V94.4H462.541V98.4ZM473.102 97.6494C475.225 94.9956 476.784 91.2789 477.886 86.6645L473.995 85.7354C472.964 90.0545 471.589 93.1377 469.979 95.1506L473.102 97.6494ZM477.879 86.6919C479.051 82.072 479.641 77.4735 479.641 72.9H475.641C475.641 77.1265 475.097 81.3946 474.002 85.7081L477.879 86.6919ZM479.641 72.9C479.641 62.2616 477.656 54.0637 473.288 48.7324L470.194 51.2676C473.692 55.5363 475.641 62.6051 475.641 72.9H479.641ZM471.741 48H462.541V52H471.741V48ZM460.541 50V96.4H464.541V50H460.541ZM450.941 108V38H446.941V108H450.941ZM448.941 40H477.941V36H448.941V40ZM476.613 39.496C485.591 47.462 490.141 58.2845 490.141 72.2H494.141C494.141 57.3155 489.224 45.338 479.268 36.504L476.613 39.496ZM490.141 72.2C490.141 86.0834 485.863 97.5133 477.376 106.638L480.305 109.362C489.552 99.42 494.141 86.9833 494.141 72.2H490.141ZM478.841 106H448.941V110H478.841V106ZM513.517 96.4H511.517V98.4H513.517V96.4ZM522.517 96.4V98.4H523.478L524.079 97.6494L522.517 96.4ZM526.917 86.2L524.979 85.7081L524.975 85.7218L524.972 85.7354L526.917 86.2ZM522.717 50L524.264 48.7324L523.664 48H522.717V50ZM513.517 50V48H511.517V50H513.517ZM499.917 108H497.917V110H499.917V108ZM499.917 38V36H497.917V38H499.917ZM528.917 38L530.245 36.504L529.677 36H528.917V38ZM529.817 108V110H530.688L531.282 109.362L529.817 108ZM513.517 98.4H522.517V94.4H513.517V98.4ZM524.079 97.6494C526.202 94.9956 527.761 91.2789 528.862 86.6645L524.972 85.7354C523.94 90.0545 522.566 93.1377 520.955 95.1506L524.079 97.6494ZM528.856 86.6919C530.028 82.072 530.617 77.4735 530.617 72.9H526.617C526.617 77.1265 526.073 81.3946 524.979 85.7081L528.856 86.6919ZM530.617 72.9C530.617 62.2616 528.633 54.0637 524.264 48.7324L521.17 51.2676C524.668 55.5363 526.617 62.6051 526.617 72.9H530.617ZM522.717 48H513.517V52H522.717V48ZM511.517 50V96.4H515.517V50H511.517ZM501.917 108V38H497.917V108H501.917ZM499.917 40H528.917V36H499.917V40ZM527.59 39.496C536.567 47.462 541.117 58.2845 541.117 72.2H545.117C545.117 57.3155 540.2 45.338 530.245 36.504L527.59 39.496ZM541.117 72.2C541.117 86.0834 536.839 97.5133 528.353 106.638L531.282 109.362C540.528 99.42 545.117 86.9833 545.117 72.2H541.117ZM529.817 106H499.917V110H529.817V106ZM550.894 38V36H548.894V38H550.894ZM577.494 38L578.126 36.1026L577.818 36H577.494V38ZM588.194 45.8L586.611 47.0221L586.623 47.0376L586.635 47.0528L588.194 45.8ZM582.094 79.3L581.072 77.5807L579.663 78.418L580.207 79.9639L582.094 79.3ZM592.194 108V110H595.018L594.08 107.336L592.194 108ZM578.194 108L576.296 108.632L576.752 110H578.194V108ZM569.694 82.5L571.591 81.8675L571.135 80.5H569.694V82.5ZM564.394 82.5V80.5H562.394V82.5H564.394ZM564.394 108V110H566.394V108H564.394ZM550.894 108H548.894V110H550.894V108ZM564.394 50V48H562.394V50H564.394ZM564.394 71.3H562.394V73.3H564.394V71.3ZM572.994 71.3V73.3H573.226L573.452 73.2468L572.994 71.3ZM576.694 67.9L575.038 66.7783L575.034 66.7844L575.03 66.7906L576.694 67.9ZM576.994 53.5L575.24 54.4617L575.252 54.4831L575.264 54.5043L576.994 53.5ZM573.594 50L574.052 48.0532L573.826 48H573.594V50ZM550.894 40H577.494V36H550.894V40ZM576.861 39.8974C580.652 41.1611 583.899 43.5089 586.611 47.0221L589.777 44.5779C586.622 40.4911 582.735 37.6389 578.126 36.1026L576.861 39.8974ZM586.635 47.0528C589.31 50.3814 590.694 54.5211 590.694 59.6H594.694C594.694 53.7456 593.078 48.6852 589.753 44.5472L586.635 47.0528ZM590.694 59.6C590.694 67.9018 587.471 73.7775 581.072 77.5807L583.116 81.0193C590.85 76.4225 594.694 69.1648 594.694 59.6H590.694ZM580.207 79.9639L590.307 108.664L594.08 107.336L583.98 78.6361L580.207 79.9639ZM592.194 106H578.194V110H592.194V106ZM580.091 107.368L571.591 81.8675L567.796 83.1325L576.296 108.632L580.091 107.368ZM569.694 80.5H564.394V84.5H569.694V80.5ZM562.394 82.5V108H566.394V82.5H562.394ZM564.394 106H550.894V110H564.394V106ZM552.894 108V38H548.894V108H552.894ZM562.394 50V71.3H566.394V50H562.394ZM564.394 73.3H572.994V69.3H564.394V73.3ZM573.452 73.2468C575.392 72.7903 576.997 71.0514 578.358 69.0094L575.03 66.7906C573.724 68.7486 572.862 69.2764 572.536 69.3532L573.452 73.2468ZM578.35 69.0217C579.995 66.5925 580.794 63.7935 580.794 60.7H576.794C576.794 63.0731 576.192 65.0741 575.038 66.7783L578.35 69.0217ZM580.794 60.7C580.794 57.6654 580.125 54.9091 578.723 52.4957L575.264 54.5043C576.263 56.2242 576.794 58.2679 576.794 60.7H580.794ZM578.747 52.5383C577.586 50.4206 576.09 48.5327 574.052 48.0532L573.136 51.9468C573.364 52.0007 574.135 52.446 575.24 54.4617L578.747 52.5383ZM573.594 48H564.394V52H573.594V48ZM599.917 108H597.917V110H599.917V108ZM599.917 38V36H597.917V38H599.917ZM635.817 38H637.817V36H635.817V38ZM635.817 50V52H637.817V50H635.817ZM613.617 50V48H611.617V50H613.617ZM613.617 66.7H611.617V68.7H613.617V66.7ZM633.417 66.7H635.417V64.7H633.417V66.7ZM633.417 78.3V80.3H635.417V78.3H633.417ZM613.617 78.3V76.3H611.617V78.3H613.617ZM613.617 96.4H611.617V98.4H613.617V96.4ZM636.217 96.4H638.217V94.4H636.217V96.4ZM636.217 108V110H638.217V108H636.217ZM601.917 108V38H597.917V108H601.917ZM599.917 40H635.817V36H599.917V40ZM633.817 38V50H637.817V38H633.817ZM635.817 48H613.617V52H635.817V48ZM611.617 50V66.7H615.617V50H611.617ZM613.617 68.7H633.417V64.7H613.617V68.7ZM631.417 66.7V78.3H635.417V66.7H631.417ZM633.417 76.3H613.617V80.3H633.417V76.3ZM611.617 78.3V96.4H615.617V78.3H611.617ZM613.617 98.4H636.217V94.4H613.617V98.4ZM634.217 96.4V108H638.217V96.4H634.217ZM636.217 106H599.917V110H636.217V106ZM649.384 38V36H648.976L648.601 36.1595L649.384 38ZM673.384 38H675.384V36H673.384V38ZM673.384 50V52H675.384V50H673.384ZM654.184 50V48H652.948L652.395 49.1056L654.184 50ZM653.884 50.6L652.095 49.7056L651.626 50.6425L652.13 51.5611L653.884 50.6ZM669.884 79.8L668.13 80.7611L668.136 80.773L669.884 79.8ZM668.084 108V110H668.715L669.232 109.637L668.084 108ZM641.584 108H639.584V110H641.584V108ZM641.584 96.4V94.4H639.584V96.4H641.584ZM662.284 96.4V98.4H663.52L664.072 97.2944L662.284 96.4ZM662.584 95.8L664.372 96.6944L664.845 95.7494L664.331 94.8264L662.584 95.8ZM644.584 63.5L642.836 64.4734L642.837 64.4736L644.584 63.5ZM649.384 40H673.384V36H649.384V40ZM671.384 38V50H675.384V38H671.384ZM673.384 48H654.184V52H673.384V48ZM652.395 49.1056L652.095 49.7056L655.672 51.4944L655.972 50.8944L652.395 49.1056ZM652.13 51.5611L668.13 80.7611L671.638 78.8389L655.638 49.6389L652.13 51.5611ZM668.136 80.773C671.39 86.6173 672.784 90.69 672.784 93.2H676.784C676.784 89.5766 674.91 84.716 671.631 78.827L668.136 80.773ZM672.784 93.2C672.784 99.4535 670.741 103.693 666.935 106.363L669.232 109.637C674.359 106.041 676.784 100.413 676.784 93.2H672.784ZM668.084 106H641.584V110H668.084V106ZM643.584 108V96.4H639.584V108H643.584ZM641.584 98.4H662.284V94.4H641.584V98.4ZM664.072 97.2944L664.372 96.6944L660.795 94.9056L660.495 95.5056L664.072 97.2944ZM664.331 94.8264L646.331 62.5264L642.837 64.4736L660.837 96.7736L664.331 94.8264ZM646.331 62.5266C643.781 57.9497 642.684 54.5151 642.684 52.1H638.684C638.684 55.5516 640.186 59.7169 642.836 64.4734L646.331 62.5266ZM642.684 52.1C642.684 48.9102 643.35 46.3881 644.561 44.4252C645.764 42.4757 647.591 40.9356 650.166 39.8405L648.601 36.1595C645.376 37.5311 642.854 39.5743 641.157 42.3248C639.468 45.0619 638.684 48.3565 638.684 52.1H642.684ZM688.153 38V36H687.746L687.37 36.1595L688.153 38ZM712.153 38H714.153V36H712.153V38ZM712.153 50V52H714.153V50H712.153ZM692.953 50V48H691.717L691.164 49.1056L692.953 50ZM692.653 50.6L690.864 49.7056L690.396 50.6425L690.899 51.5611L692.653 50.6ZM708.653 79.8L706.899 80.7611L706.906 80.773L708.653 79.8ZM706.853 108V110H707.485L708.002 109.637L706.853 108ZM680.353 108H678.353V110H680.353V108ZM680.353 96.4V94.4H678.353V96.4H680.353ZM701.053 96.4V98.4H702.289L702.842 97.2944L701.053 96.4ZM701.353 95.8L703.142 96.6944L703.615 95.7494L703.1 94.8264L701.353 95.8ZM683.353 63.5L681.606 64.4734L681.606 64.4736L683.353 63.5ZM688.153 40H712.153V36H688.153V40ZM710.153 38V50H714.153V38H710.153ZM712.153 48H692.953V52H712.153V48ZM691.164 49.1056L690.864 49.7056L694.442 51.4944L694.742 50.8944L691.164 49.1056ZM690.899 51.5611L706.899 80.7611L710.407 78.8389L694.407 49.6389L690.899 51.5611ZM706.906 80.773C710.16 86.6173 711.553 90.69 711.553 93.2H715.553C715.553 89.5766 713.68 84.716 710.401 78.827L706.906 80.773ZM711.553 93.2C711.553 99.4535 709.511 103.693 705.705 106.363L708.002 109.637C713.129 106.041 715.553 100.413 715.553 93.2H711.553ZM706.853 106H680.353V110H706.853V106ZM682.353 108V96.4H678.353V108H682.353ZM680.353 98.4H701.053V94.4H680.353V98.4ZM702.842 97.2944L703.142 96.6944L699.564 94.9056L699.264 95.5056L702.842 97.2944ZM703.1 94.8264L685.1 62.5264L681.606 64.4736L699.606 96.7736L703.1 94.8264ZM685.1 62.5266C682.55 57.9497 681.453 54.5151 681.453 52.1H677.453C677.453 55.5516 678.956 59.7169 681.606 64.4734L685.1 62.5266ZM681.453 52.1C681.453 48.9102 682.119 46.3881 683.33 44.4252C684.533 42.4757 686.361 40.9356 688.936 39.8405L687.37 36.1595C684.145 37.5311 681.623 39.5743 679.926 42.3248C678.237 45.0619 677.453 48.3565 677.453 52.1H681.453Z" fill="black" mask="url(#path-3-outside-2_328_190)"/>
</svg>
