<svg width="357" height="217" viewBox="0 0 357 217" fill="none" xmlns="http://www.w3.org/2000/svg">
<mask id="path-1-outside-1_328_190" maskUnits="userSpaceOnUse" x="2" y="51" width="353" height="130" fill="black">
<rect fill="white" x="2" y="51" width="353" height="130"/>
<path d="M39.15 66.4H54V84.4H24.9L24.45 85.3L48.75 123.7C53.65 131.6 56.1 138.3 56.1 143.8C56.1 153.9 52.75 161.3 46.05 166H39V178.9H23.1V166H6.3V148.6H38.1L38.55 147.7L10.8 104.65C6.9 98.45 4.95 92.75 4.95 87.55C4.95 77.15 9.3 70.1 18 66.4H23.25V53.5H39.15V66.4ZM86.6297 82V119.5H99.9797C105.48 115 108.23 108.4 108.23 99.7C108.23 96 107.48 92.5 105.98 89.2C104.58 85.9 102.88 83.5 100.88 82H86.6297ZM66.3797 169V64H107.03C113.83 67 119.18 71.6 123.08 77.8C127.08 84 129.08 91.25 129.08 99.55C129.08 107.75 127.03 115.35 122.93 122.35C118.83 129.35 112.78 134.3 104.78 137.2H86.6297V169H66.3797ZM140.061 169V64H193.911V82H160.611V107.05H190.311V124.45H160.611V151.6H194.511V169H140.061ZM226.526 151.6H240.026C242.826 148.1 245.026 143 246.626 136.3C248.326 129.6 249.176 122.95 249.176 116.35C249.176 100.65 246.226 89.2 240.326 82H226.526V151.6ZM206.126 169V64H249.626C263.826 76.6 270.926 93.7 270.926 115.3C270.926 136.8 264.276 154.7 250.976 169H206.126ZM331.491 64C338.491 69.7 343.691 77.35 347.091 86.95C350.491 96.55 352.191 106.45 352.191 116.65C352.191 126.75 350.541 136.35 347.241 145.45C343.941 154.55 338.691 162.4 331.491 169H300.591C293.391 162.4 288.141 154.55 284.841 145.45C281.541 136.35 279.891 126.75 279.891 116.65C279.891 106.45 281.591 96.55 284.991 86.95C288.391 77.35 293.591 69.7 300.591 64H331.491ZM310.641 151.6H321.441C323.941 148.7 326.041 144 327.741 137.5C329.541 130.9 330.441 123.95 330.441 116.65C330.441 109.35 329.591 102.5 327.891 96.1C326.191 89.6 324.091 84.9 321.591 82H310.641C308.141 84.9 305.991 89.6 304.191 96.1C302.491 102.5 301.641 109.35 301.641 116.65C301.641 123.95 302.491 130.9 304.191 137.5C305.991 144 308.141 148.7 310.641 151.6Z"/>
</mask>
<path d="M39.15 66.4H54V84.4H24.9L24.45 85.3L48.75 123.7C53.65 131.6 56.1 138.3 56.1 143.8C56.1 153.9 52.75 161.3 46.05 166H39V178.9H23.1V166H6.3V148.6H38.1L38.55 147.7L10.8 104.65C6.9 98.45 4.95 92.75 4.95 87.55C4.95 77.15 9.3 70.1 18 66.4H23.25V53.5H39.15V66.4ZM86.6297 82V119.5H99.9797C105.48 115 108.23 108.4 108.23 99.7C108.23 96 107.48 92.5 105.98 89.2C104.58 85.9 102.88 83.5 100.88 82H86.6297ZM66.3797 169V64H107.03C113.83 67 119.18 71.6 123.08 77.8C127.08 84 129.08 91.25 129.08 99.55C129.08 107.75 127.03 115.35 122.93 122.35C118.83 129.35 112.78 134.3 104.78 137.2H86.6297V169H66.3797ZM140.061 169V64H193.911V82H160.611V107.05H190.311V124.45H160.611V151.6H194.511V169H140.061ZM226.526 151.6H240.026C242.826 148.1 245.026 143 246.626 136.3C248.326 129.6 249.176 122.95 249.176 116.35C249.176 100.65 246.226 89.2 240.326 82H226.526V151.6ZM206.126 169V64H249.626C263.826 76.6 270.926 93.7 270.926 115.3C270.926 136.8 264.276 154.7 250.976 169H206.126ZM331.491 64C338.491 69.7 343.691 77.35 347.091 86.95C350.491 96.55 352.191 106.45 352.191 116.65C352.191 126.75 350.541 136.35 347.241 145.45C343.941 154.55 338.691 162.4 331.491 169H300.591C293.391 162.4 288.141 154.55 284.841 145.45C281.541 136.35 279.891 126.75 279.891 116.65C279.891 106.45 281.591 96.55 284.991 86.95C288.391 77.35 293.591 69.7 300.591 64H331.491ZM310.641 151.6H321.441C323.941 148.7 326.041 144 327.741 137.5C329.541 130.9 330.441 123.95 330.441 116.65C330.441 109.35 329.591 102.5 327.891 96.1C326.191 89.6 324.091 84.9 321.591 82H310.641C308.141 84.9 305.991 89.6 304.191 96.1C302.491 102.5 301.641 109.35 301.641 116.65C301.641 123.95 302.491 130.9 304.191 137.5C305.991 144 308.141 148.7 310.641 151.6Z" fill="#7DF7DA"/>
<path d="M39.15 66.4H37.15V68.4H39.15V66.4ZM54 66.4H56V64.4H54V66.4ZM54 84.4V86.4H56V84.4H54ZM24.9 84.4V82.4H23.6639L23.1111 83.5056L24.9 84.4ZM24.45 85.3L22.6611 84.4056L22.1562 85.4154L22.76 86.3695L24.45 85.3ZM48.75 123.7L50.4496 122.646L50.4449 122.638L50.44 122.631L48.75 123.7ZM46.05 166V168H46.6815L47.1986 167.637L46.05 166ZM39 166V164H37V166H39ZM39 178.9V180.9H41V178.9H39ZM23.1 178.9H21.1V180.9H23.1V178.9ZM23.1 166H25.1V164H23.1V166ZM6.3 166H4.3V168H6.3V166ZM6.3 148.6V146.6H4.3V148.6H6.3ZM38.1 148.6V150.6H39.3361L39.8889 149.494L38.1 148.6ZM38.55 147.7L40.3389 148.594L40.8487 147.575L40.231 146.616L38.55 147.7ZM10.8 104.65L9.10708 105.715L9.11298 105.724L9.11898 105.734L10.8 104.65ZM18 66.4V64.4H17.5924L17.2173 64.5595L18 66.4ZM23.25 66.4V68.4H25.25V66.4H23.25ZM23.25 53.5V51.5H21.25V53.5H23.25ZM39.15 53.5H41.15V51.5H39.15V53.5ZM39.15 68.4H54V64.4H39.15V68.4ZM52 66.4V84.4H56V66.4H52ZM54 82.4H24.9V86.4H54V82.4ZM23.1111 83.5056L22.6611 84.4056L26.2389 86.1944L26.6889 85.2944L23.1111 83.5056ZM22.76 86.3695L47.06 124.769L50.44 122.631L26.14 84.2305L22.76 86.3695ZM47.0504 124.754C51.8743 132.531 54.1 138.849 54.1 143.8H58.1C58.1 137.751 55.4257 130.669 50.4496 122.646L47.0504 124.754ZM54.1 143.8C54.1 153.42 50.9409 160.126 44.9014 164.363L47.1986 167.637C54.5591 162.474 58.1 154.38 58.1 143.8H54.1ZM46.05 164H39V168H46.05V164ZM37 166V178.9H41V166H37ZM39 176.9H23.1V180.9H39V176.9ZM25.1 178.9V166H21.1V178.9H25.1ZM23.1 164H6.3V168H23.1V164ZM8.3 166V148.6H4.3V166H8.3ZM6.3 150.6H38.1V146.6H6.3V150.6ZM39.8889 149.494L40.3389 148.594L36.7611 146.806L36.3111 147.706L39.8889 149.494ZM40.231 146.616L12.481 103.566L9.11898 105.734L36.869 148.784L40.231 146.616ZM12.4929 103.585C8.71523 97.5795 6.95 92.2491 6.95 87.55H2.95C2.95 93.2509 5.08477 99.3205 9.10708 105.715L12.4929 103.585ZM6.95 87.55C6.95 82.6269 7.97844 78.6506 9.91457 75.5127C11.8425 72.3882 14.7578 69.9522 18.7827 68.2405L17.2173 64.5595C12.5422 66.5478 8.93254 69.4868 6.51043 73.4123C4.09656 77.3244 2.95 82.0731 2.95 87.55H6.95ZM18 68.4H23.25V64.4H18V68.4ZM25.25 66.4V53.5H21.25V66.4H25.25ZM23.25 55.5H39.15V51.5H23.25V55.5ZM37.15 53.5V66.4H41.15V53.5H37.15ZM86.6297 82V80H84.6297V82H86.6297ZM86.6297 119.5H84.6297V121.5H86.6297V119.5ZM99.9797 119.5V121.5H100.694L101.246 121.048L99.9797 119.5ZM105.98 89.2L104.139 89.9811L104.148 90.0045L104.159 90.0276L105.98 89.2ZM100.88 82L102.08 80.4L101.546 80H100.88V82ZM66.3797 169H64.3797V171H66.3797V169ZM66.3797 64V62H64.3797V64H66.3797ZM107.03 64L107.837 62.1702L107.451 62H107.03V64ZM123.08 77.8L121.387 78.8649L121.393 78.8746L121.399 78.8842L123.08 77.8ZM122.93 122.35L121.204 121.339L121.204 121.339L122.93 122.35ZM104.78 137.2V139.2H105.131L105.461 139.08L104.78 137.2ZM86.6297 137.2V135.2H84.6297V137.2H86.6297ZM86.6297 169V171H88.6297V169H86.6297ZM84.6297 82V119.5H88.6297V82H84.6297ZM86.6297 121.5H99.9797V117.5H86.6297V121.5ZM101.246 121.048C107.314 116.083 110.23 108.852 110.23 99.7H106.23C106.23 107.948 103.645 113.917 98.7132 117.952L101.246 121.048ZM110.23 99.7C110.23 95.7206 109.421 91.9378 107.8 88.3724L104.159 90.0276C105.538 93.0622 106.23 96.2794 106.23 99.7H110.23ZM107.821 88.4189C106.339 84.9269 104.458 82.184 102.08 80.4L99.6797 83.6C101.301 84.816 102.82 86.8731 104.139 89.9811L107.821 88.4189ZM100.88 80H86.6297V84H100.88V80ZM68.3797 169V64H64.3797V169H68.3797ZM66.3797 66H107.03V62H66.3797V66ZM106.222 65.8298C112.663 68.6714 117.702 73.0077 121.387 78.8649L124.773 76.7351C120.657 70.1923 114.996 65.3286 107.837 62.1702L106.222 65.8298ZM121.399 78.8842C125.165 84.7218 127.08 91.5851 127.08 99.55H131.08C131.08 90.9149 128.994 83.2782 124.76 76.7157L121.399 78.8842ZM127.08 99.55C127.08 107.399 125.122 114.649 121.204 121.339L124.655 123.361C128.937 116.051 131.08 108.101 131.08 99.55H127.08ZM121.204 121.339C117.352 127.916 111.683 132.57 104.098 135.32L105.461 139.08C113.877 136.03 120.307 130.784 124.655 123.361L121.204 121.339ZM104.78 135.2H86.6297V139.2H104.78V135.2ZM84.6297 137.2V169H88.6297V137.2H84.6297ZM86.6297 167H66.3797V171H86.6297V167ZM140.061 169H138.061V171H140.061V169ZM140.061 64V62H138.061V64H140.061ZM193.911 64H195.911V62H193.911V64ZM193.911 82V84H195.911V82H193.911ZM160.611 82V80H158.611V82H160.611ZM160.611 107.05H158.611V109.05H160.611V107.05ZM190.311 107.05H192.311V105.05H190.311V107.05ZM190.311 124.45V126.45H192.311V124.45H190.311ZM160.611 124.45V122.45H158.611V124.45H160.611ZM160.611 151.6H158.611V153.6H160.611V151.6ZM194.511 151.6H196.511V149.6H194.511V151.6ZM194.511 169V171H196.511V169H194.511ZM142.061 169V64H138.061V169H142.061ZM140.061 66H193.911V62H140.061V66ZM191.911 64V82H195.911V64H191.911ZM193.911 80H160.611V84H193.911V80ZM158.611 82V107.05H162.611V82H158.611ZM160.611 109.05H190.311V105.05H160.611V109.05ZM188.311 107.05V124.45H192.311V107.05H188.311ZM190.311 122.45H160.611V126.45H190.311V122.45ZM158.611 124.45V151.6H162.611V124.45H158.611ZM160.611 153.6H194.511V149.6H160.611V153.6ZM192.511 151.6V169H196.511V151.6H192.511ZM194.511 167H140.061V171H194.511V167ZM226.526 151.6H224.526V153.6H226.526V151.6ZM240.026 151.6V153.6H240.987L241.588 152.849L240.026 151.6ZM246.626 136.3L244.687 135.808L244.684 135.822L244.68 135.835L246.626 136.3ZM240.326 82L241.873 80.7323L241.273 80H240.326V82ZM226.526 82V80H224.526V82H226.526ZM206.126 169H204.126V171H206.126V169ZM206.126 64V62H204.126V64H206.126ZM249.626 64L250.953 62.504L250.385 62H249.626V64ZM250.976 169V171H251.847L252.44 170.362L250.976 169ZM226.526 153.6H240.026V149.6H226.526V153.6ZM241.588 152.849C244.644 149.029 246.936 143.612 248.571 136.765L244.68 135.835C243.116 142.388 241.008 147.171 238.464 150.351L241.588 152.849ZM248.564 136.792C250.303 129.939 251.176 123.124 251.176 116.35H247.176C247.176 122.776 246.348 129.261 244.687 135.808L248.564 136.792ZM251.176 116.35C251.176 100.478 248.208 88.4637 241.873 80.7323L238.779 83.2676C244.243 89.9363 247.176 100.822 247.176 116.35H251.176ZM240.326 80H226.526V84H240.326V80ZM224.526 82V151.6H228.526V82H224.526ZM208.126 169V64H204.126V169H208.126ZM206.126 66H249.626V62H206.126V66ZM248.298 65.496C262.009 77.662 268.926 94.1845 268.926 115.3H272.926C272.926 93.2155 265.642 75.538 250.953 62.504L248.298 65.496ZM268.926 115.3C268.926 136.35 262.431 153.747 249.511 167.638L252.44 170.362C266.12 155.653 272.926 137.25 272.926 115.3H268.926ZM250.976 167H206.126V171H250.976V167ZM331.491 64L332.753 62.4491L332.202 62H331.491V64ZM347.091 86.95L345.205 87.6177L345.205 87.6177L347.091 86.95ZM347.241 145.45L349.121 146.132L349.121 146.132L347.241 145.45ZM331.491 169V171H332.269L332.842 170.474L331.491 169ZM300.591 169L299.239 170.474L299.813 171H300.591V169ZM284.991 86.95L283.105 86.2823L283.105 86.2823L284.991 86.95ZM300.591 64V62H299.879L299.328 62.4491L300.591 64ZM310.641 151.6L309.126 152.906L309.724 153.6H310.641V151.6ZM321.441 151.6V153.6H322.357L322.955 152.906L321.441 151.6ZM327.741 137.5L325.811 136.974L325.808 136.984L325.806 136.994L327.741 137.5ZM327.891 96.1L325.956 96.6061L325.958 96.6134L327.891 96.1ZM321.591 82L323.105 80.6941L322.507 80H321.591V82ZM310.641 82V80H309.724L309.126 80.6941L310.641 82ZM304.191 96.1L302.263 95.5662L302.26 95.5764L302.258 95.5866L304.191 96.1ZM304.191 137.5L302.254 137.999L302.258 138.016L302.263 138.034L304.191 137.5ZM330.228 65.5509C336.908 70.9905 341.912 78.3182 345.205 87.6177L348.976 86.2823C345.469 76.3818 340.073 68.4095 332.753 62.4491L330.228 65.5509ZM345.205 87.6177C348.529 97.0029 350.191 106.677 350.191 116.65H354.191C354.191 106.223 352.452 96.0971 348.976 86.2823L345.205 87.6177ZM350.191 116.65C350.191 126.528 348.578 135.896 345.36 144.768L349.121 146.132C352.503 136.804 354.191 126.972 354.191 116.65H350.191ZM345.36 144.768C342.171 153.562 337.104 161.141 330.139 167.526L332.842 170.474C340.277 163.659 345.71 155.538 349.121 146.132L345.36 144.768ZM331.491 167H300.591V171H331.491V167ZM301.942 167.526C294.977 161.141 289.91 153.562 286.721 144.768L282.96 146.132C286.371 155.538 291.804 163.659 299.239 170.474L301.942 167.526ZM286.721 144.768C283.503 135.896 281.891 126.528 281.891 116.65H277.891C277.891 126.972 279.578 136.804 282.96 146.132L286.721 144.768ZM281.891 116.65C281.891 106.677 283.552 97.0029 286.876 87.6177L283.105 86.2823C279.629 96.0971 277.891 106.223 277.891 116.65H281.891ZM286.876 87.6177C290.169 78.3182 295.173 70.9905 301.853 65.5509L299.328 62.4491C292.008 68.4095 286.612 76.3818 283.105 86.2823L286.876 87.6177ZM300.591 66H331.491V62H300.591V66ZM310.641 153.6H321.441V149.6H310.641V153.6ZM322.955 152.906C325.752 149.661 327.948 144.61 329.676 138.006L325.806 136.994C324.133 143.39 322.129 147.739 319.926 150.294L322.955 152.906ZM329.67 138.026C331.52 131.244 332.441 124.116 332.441 116.65H328.441C328.441 123.784 327.561 130.556 325.811 136.974L329.67 138.026ZM332.441 116.65C332.441 109.194 331.572 102.17 329.824 95.5866L325.958 96.6134C327.609 102.83 328.441 109.506 328.441 116.65H332.441ZM329.826 95.5939C328.098 88.9896 325.902 83.9386 323.105 80.6941L320.076 83.3059C322.279 85.8613 324.283 90.2103 325.956 96.6061L329.826 95.5939ZM321.591 80H310.641V84H321.591V80ZM309.126 80.6941C306.338 83.9281 304.091 88.9666 302.263 95.5662L306.118 96.6338C307.89 90.2334 309.943 85.8719 312.155 83.3059L309.126 80.6941ZM302.258 95.5866C300.509 102.17 299.641 109.194 299.641 116.65H303.641C303.641 109.506 304.472 102.83 306.124 96.6134L302.258 95.5866ZM299.641 116.65C299.641 124.106 300.509 131.225 302.254 137.999L306.127 137.001C304.472 130.575 303.641 123.794 303.641 116.65H299.641ZM302.263 138.034C304.091 144.633 306.338 149.672 309.126 152.906L312.155 150.294C309.943 147.728 307.89 143.367 306.118 136.966L302.263 138.034Z" fill="black" mask="url(#path-1-outside-1_328_190)"/>
<mask id="path-3-outside-2_328_190" maskUnits="userSpaceOnUse" x="2" y="44" width="353" height="130" fill="black">
<rect fill="white" x="2" y="44" width="353" height="130"/>
<path d="M39.15 59.4H54V77.4H24.9L24.45 78.3L48.75 116.7C53.65 124.6 56.1 131.3 56.1 136.8C56.1 146.9 52.75 154.3 46.05 159H39V171.9H23.1V159H6.3V141.6H38.1L38.55 140.7L10.8 97.65C6.9 91.45 4.95 85.75 4.95 80.55C4.95 70.15 9.3 63.1 18 59.4H23.25V46.5H39.15V59.4ZM86.6297 75V112.5H99.9797C105.48 108 108.23 101.4 108.23 92.7C108.23 89 107.48 85.5 105.98 82.2C104.58 78.9 102.88 76.5 100.88 75H86.6297ZM66.3797 162V57H107.03C113.83 60 119.18 64.6 123.08 70.8C127.08 77 129.08 84.25 129.08 92.55C129.08 100.75 127.03 108.35 122.93 115.35C118.83 122.35 112.78 127.3 104.78 130.2H86.6297V162H66.3797ZM140.061 162V57H193.911V75H160.611V100.05H190.311V117.45H160.611V144.6H194.511V162H140.061ZM226.526 144.6H240.026C242.826 141.1 245.026 136 246.626 129.3C248.326 122.6 249.176 115.95 249.176 109.35C249.176 93.65 246.226 82.2 240.326 75H226.526V144.6ZM206.126 162V57H249.626C263.826 69.6 270.926 86.7 270.926 108.3C270.926 129.8 264.276 147.7 250.976 162H206.126ZM331.491 57C338.491 62.7 343.691 70.35 347.091 79.95C350.491 89.55 352.191 99.45 352.191 109.65C352.191 119.75 350.541 129.35 347.241 138.45C343.941 147.55 338.691 155.4 331.491 162H300.591C293.391 155.4 288.141 147.55 284.841 138.45C281.541 129.35 279.891 119.75 279.891 109.65C279.891 99.45 281.591 89.55 284.991 79.95C288.391 70.35 293.591 62.7 300.591 57H331.491ZM310.641 144.6H321.441C323.941 141.7 326.041 137 327.741 130.5C329.541 123.9 330.441 116.95 330.441 109.65C330.441 102.35 329.591 95.5 327.891 89.1C326.191 82.6 324.091 77.9 321.591 75H310.641C308.141 77.9 305.991 82.6 304.191 89.1C302.491 95.5 301.641 102.35 301.641 109.65C301.641 116.95 302.491 123.9 304.191 130.5C305.991 137 308.141 141.7 310.641 144.6Z"/>
</mask>
<path d="M39.15 59.4H54V77.4H24.9L24.45 78.3L48.75 116.7C53.65 124.6 56.1 131.3 56.1 136.8C56.1 146.9 52.75 154.3 46.05 159H39V171.9H23.1V159H6.3V141.6H38.1L38.55 140.7L10.8 97.65C6.9 91.45 4.95 85.75 4.95 80.55C4.95 70.15 9.3 63.1 18 59.4H23.25V46.5H39.15V59.4ZM86.6297 75V112.5H99.9797C105.48 108 108.23 101.4 108.23 92.7C108.23 89 107.48 85.5 105.98 82.2C104.58 78.9 102.88 76.5 100.88 75H86.6297ZM66.3797 162V57H107.03C113.83 60 119.18 64.6 123.08 70.8C127.08 77 129.08 84.25 129.08 92.55C129.08 100.75 127.03 108.35 122.93 115.35C118.83 122.35 112.78 127.3 104.78 130.2H86.6297V162H66.3797ZM140.061 162V57H193.911V75H160.611V100.05H190.311V117.45H160.611V144.6H194.511V162H140.061ZM226.526 144.6H240.026C242.826 141.1 245.026 136 246.626 129.3C248.326 122.6 249.176 115.95 249.176 109.35C249.176 93.65 246.226 82.2 240.326 75H226.526V144.6ZM206.126 162V57H249.626C263.826 69.6 270.926 86.7 270.926 108.3C270.926 129.8 264.276 147.7 250.976 162H206.126ZM331.491 57C338.491 62.7 343.691 70.35 347.091 79.95C350.491 89.55 352.191 99.45 352.191 109.65C352.191 119.75 350.541 129.35 347.241 138.45C343.941 147.55 338.691 155.4 331.491 162H300.591C293.391 155.4 288.141 147.55 284.841 138.45C281.541 129.35 279.891 119.75 279.891 109.65C279.891 99.45 281.591 89.55 284.991 79.95C288.391 70.35 293.591 62.7 300.591 57H331.491ZM310.641 144.6H321.441C323.941 141.7 326.041 137 327.741 130.5C329.541 123.9 330.441 116.95 330.441 109.65C330.441 102.35 329.591 95.5 327.891 89.1C326.191 82.6 324.091 77.9 321.591 75H310.641C308.141 77.9 305.991 82.6 304.191 89.1C302.491 95.5 301.641 102.35 301.641 109.65C301.641 116.95 302.491 123.9 304.191 130.5C305.991 137 308.141 141.7 310.641 144.6Z" fill="white"/>
<path d="M39.15 59.4H37.15V61.4H39.15V59.4ZM54 59.4H56V57.4H54V59.4ZM54 77.4V79.4H56V77.4H54ZM24.9 77.4V75.4H23.6639L23.1111 76.5056L24.9 77.4ZM24.45 78.3L22.6611 77.4056L22.1562 78.4154L22.76 79.3695L24.45 78.3ZM48.75 116.7L50.4496 115.646L50.4449 115.638L50.44 115.631L48.75 116.7ZM46.05 159V161H46.6815L47.1986 160.637L46.05 159ZM39 159V157H37V159H39ZM39 171.9V173.9H41V171.9H39ZM23.1 171.9H21.1V173.9H23.1V171.9ZM23.1 159H25.1V157H23.1V159ZM6.3 159H4.3V161H6.3V159ZM6.3 141.6V139.6H4.3V141.6H6.3ZM38.1 141.6V143.6H39.3361L39.8889 142.494L38.1 141.6ZM38.55 140.7L40.3389 141.594L40.8487 140.575L40.231 139.616L38.55 140.7ZM10.8 97.65L9.10708 98.7149L9.11298 98.7243L9.11898 98.7336L10.8 97.65ZM18 59.4V57.4H17.5924L17.2173 57.5595L18 59.4ZM23.25 59.4V61.4H25.25V59.4H23.25ZM23.25 46.5V44.5H21.25V46.5H23.25ZM39.15 46.5H41.15V44.5H39.15V46.5ZM39.15 61.4H54V57.4H39.15V61.4ZM52 59.4V77.4H56V59.4H52ZM54 75.4H24.9V79.4H54V75.4ZM23.1111 76.5056L22.6611 77.4056L26.2389 79.1944L26.6889 78.2944L23.1111 76.5056ZM22.76 79.3695L47.06 117.769L50.44 115.631L26.14 77.2305L22.76 79.3695ZM47.0504 117.754C51.8743 125.531 54.1 131.849 54.1 136.8H58.1C58.1 130.751 55.4257 123.669 50.4496 115.646L47.0504 117.754ZM54.1 136.8C54.1 146.42 50.9409 153.126 44.9014 157.363L47.1986 160.637C54.5591 155.474 58.1 147.38 58.1 136.8H54.1ZM46.05 157H39V161H46.05V157ZM37 159V171.9H41V159H37ZM39 169.9H23.1V173.9H39V169.9ZM25.1 171.9V159H21.1V171.9H25.1ZM23.1 157H6.3V161H23.1V157ZM8.3 159V141.6H4.3V159H8.3ZM6.3 143.6H38.1V139.6H6.3V143.6ZM39.8889 142.494L40.3389 141.594L36.7611 139.806L36.3111 140.706L39.8889 142.494ZM40.231 139.616L12.481 96.5664L9.11898 98.7336L36.869 141.784L40.231 139.616ZM12.4929 96.5851C8.71523 90.5795 6.95 85.2491 6.95 80.55H2.95C2.95 86.2509 5.08477 92.3205 9.10708 98.7149L12.4929 96.5851ZM6.95 80.55C6.95 75.6269 7.97844 71.6506 9.91457 68.5127C11.8425 65.3882 14.7578 62.9522 18.7827 61.2405L17.2173 57.5595C12.5422 59.5478 8.93254 62.4868 6.51043 66.4123C4.09656 70.3244 2.95 75.0731 2.95 80.55H6.95ZM18 61.4H23.25V57.4H18V61.4ZM25.25 59.4V46.5H21.25V59.4H25.25ZM23.25 48.5H39.15V44.5H23.25V48.5ZM37.15 46.5V59.4H41.15V46.5H37.15ZM86.6297 75V73H84.6297V75H86.6297ZM86.6297 112.5H84.6297V114.5H86.6297V112.5ZM99.9797 112.5V114.5H100.694L101.246 114.048L99.9797 112.5ZM105.98 82.2L104.139 82.9811L104.148 83.0045L104.159 83.0276L105.98 82.2ZM100.88 75L102.08 73.4L101.546 73H100.88V75ZM66.3797 162H64.3797V164H66.3797V162ZM66.3797 57V55H64.3797V57H66.3797ZM107.03 57L107.837 55.1702L107.451 55H107.03V57ZM123.08 70.8L121.387 71.8649L121.393 71.8746L121.399 71.8842L123.08 70.8ZM122.93 115.35L121.204 114.339L121.204 114.339L122.93 115.35ZM104.78 130.2V132.2H105.131L105.461 132.08L104.78 130.2ZM86.6297 130.2V128.2H84.6297V130.2H86.6297ZM86.6297 162V164H88.6297V162H86.6297ZM84.6297 75V112.5H88.6297V75H84.6297ZM86.6297 114.5H99.9797V110.5H86.6297V114.5ZM101.246 114.048C107.314 109.083 110.23 101.852 110.23 92.7H106.23C106.23 100.948 103.645 106.917 98.7132 110.952L101.246 114.048ZM110.23 92.7C110.23 88.7206 109.421 84.9378 107.8 81.3724L104.159 83.0276C105.538 86.0622 106.23 89.2794 106.23 92.7H110.23ZM107.821 81.4189C106.339 77.9269 104.458 75.184 102.08 73.4L99.6797 76.6C101.301 77.816 102.82 79.8731 104.139 82.9811L107.821 81.4189ZM100.88 73H86.6297V77H100.88V73ZM68.3797 162V57H64.3797V162H68.3797ZM66.3797 59H107.03V55H66.3797V59ZM106.222 58.8298C112.663 61.6714 117.702 66.0077 121.387 71.8649L124.773 69.7351C120.657 63.1923 114.996 58.3286 107.837 55.1702L106.222 58.8298ZM121.399 71.8842C125.165 77.7218 127.08 84.5851 127.08 92.55H131.08C131.08 83.9149 128.994 76.2782 124.76 69.7157L121.399 71.8842ZM127.08 92.55C127.08 100.399 125.122 107.649 121.204 114.339L124.655 116.361C128.937 109.051 131.08 101.101 131.08 92.55H127.08ZM121.204 114.339C117.352 120.916 111.683 125.57 104.098 128.32L105.461 132.08C113.877 129.03 120.307 123.784 124.655 116.361L121.204 114.339ZM104.78 128.2H86.6297V132.2H104.78V128.2ZM84.6297 130.2V162H88.6297V130.2H84.6297ZM86.6297 160H66.3797V164H86.6297V160ZM140.061 162H138.061V164H140.061V162ZM140.061 57V55H138.061V57H140.061ZM193.911 57H195.911V55H193.911V57ZM193.911 75V77H195.911V75H193.911ZM160.611 75V73H158.611V75H160.611ZM160.611 100.05H158.611V102.05H160.611V100.05ZM190.311 100.05H192.311V98.05H190.311V100.05ZM190.311 117.45V119.45H192.311V117.45H190.311ZM160.611 117.45V115.45H158.611V117.45H160.611ZM160.611 144.6H158.611V146.6H160.611V144.6ZM194.511 144.6H196.511V142.6H194.511V144.6ZM194.511 162V164H196.511V162H194.511ZM142.061 162V57H138.061V162H142.061ZM140.061 59H193.911V55H140.061V59ZM191.911 57V75H195.911V57H191.911ZM193.911 73H160.611V77H193.911V73ZM158.611 75V100.05H162.611V75H158.611ZM160.611 102.05H190.311V98.05H160.611V102.05ZM188.311 100.05V117.45H192.311V100.05H188.311ZM190.311 115.45H160.611V119.45H190.311V115.45ZM158.611 117.45V144.6H162.611V117.45H158.611ZM160.611 146.6H194.511V142.6H160.611V146.6ZM192.511 144.6V162H196.511V144.6H192.511ZM194.511 160H140.061V164H194.511V160ZM226.526 144.6H224.526V146.6H226.526V144.6ZM240.026 144.6V146.6H240.987L241.588 145.849L240.026 144.6ZM246.626 129.3L244.687 128.808L244.684 128.822L244.68 128.835L246.626 129.3ZM240.326 75L241.873 73.7323L241.273 73H240.326V75ZM226.526 75V73H224.526V75H226.526ZM206.126 162H204.126V164H206.126V162ZM206.126 57V55H204.126V57H206.126ZM249.626 57L250.953 55.504L250.385 55H249.626V57ZM250.976 162V164H251.847L252.44 163.362L250.976 162ZM226.526 146.6H240.026V142.6H226.526V146.6ZM241.588 145.849C244.644 142.029 246.936 136.612 248.571 129.765L244.68 128.835C243.116 135.388 241.008 140.171 238.464 143.351L241.588 145.849ZM248.564 129.792C250.303 122.939 251.176 116.124 251.176 109.35H247.176C247.176 115.776 246.348 122.261 244.687 128.808L248.564 129.792ZM251.176 109.35C251.176 93.4782 248.208 81.4637 241.873 73.7323L238.779 76.2676C244.243 82.9363 247.176 93.8218 247.176 109.35H251.176ZM240.326 73H226.526V77H240.326V73ZM224.526 75V144.6H228.526V75H224.526ZM208.126 162V57H204.126V162H208.126ZM206.126 59H249.626V55H206.126V59ZM248.298 58.496C262.009 70.662 268.926 87.1845 268.926 108.3H272.926C272.926 86.2155 265.642 68.538 250.953 55.504L248.298 58.496ZM268.926 108.3C268.926 129.35 262.431 146.747 249.511 160.638L252.44 163.362C266.12 148.653 272.926 130.25 272.926 108.3H268.926ZM250.976 160H206.126V164H250.976V160ZM331.491 57L332.753 55.4491L332.202 55H331.491V57ZM347.091 79.95L345.205 80.6177L345.205 80.6177L347.091 79.95ZM347.241 138.45L349.121 139.132L349.121 139.132L347.241 138.45ZM331.491 162V164H332.269L332.842 163.474L331.491 162ZM300.591 162L299.239 163.474L299.813 164H300.591V162ZM284.991 79.95L283.105 79.2823L283.105 79.2823L284.991 79.95ZM300.591 57V55H299.879L299.328 55.4491L300.591 57ZM310.641 144.6L309.126 145.906L309.724 146.6H310.641V144.6ZM321.441 144.6V146.6H322.357L322.955 145.906L321.441 144.6ZM327.741 130.5L325.811 129.974L325.808 129.984L325.806 129.994L327.741 130.5ZM327.891 89.1L325.956 89.6061L325.958 89.6134L327.891 89.1ZM321.591 75L323.105 73.6941L322.507 73H321.591V75ZM310.641 75V73H309.724L309.126 73.6941L310.641 75ZM304.191 89.1L302.263 88.5662L302.26 88.5764L302.258 88.5866L304.191 89.1ZM304.191 130.5L302.254 130.999L302.258 131.016L302.263 131.034L304.191 130.5ZM330.228 58.5509C336.908 63.9905 341.912 71.3182 345.205 80.6177L348.976 79.2823C345.469 69.3818 340.073 61.4095 332.753 55.4491L330.228 58.5509ZM345.205 80.6177C348.529 90.0029 350.191 99.6771 350.191 109.65H354.191C354.191 99.2229 352.452 89.0971 348.976 79.2823L345.205 80.6177ZM350.191 109.65C350.191 119.528 348.578 128.896 345.36 137.768L349.121 139.132C352.503 129.804 354.191 119.972 354.191 109.65H350.191ZM345.36 137.768C342.171 146.562 337.104 154.141 330.139 160.526L332.842 163.474C340.277 156.659 345.71 148.538 349.121 139.132L345.36 137.768ZM331.491 160H300.591V164H331.491V160ZM301.942 160.526C294.977 154.141 289.91 146.562 286.721 137.768L282.96 139.132C286.371 148.538 291.804 156.659 299.239 163.474L301.942 160.526ZM286.721 137.768C283.503 128.896 281.891 119.528 281.891 109.65H277.891C277.891 119.972 279.578 129.804 282.96 139.132L286.721 137.768ZM281.891 109.65C281.891 99.6771 283.552 90.0029 286.876 80.6177L283.105 79.2823C279.629 89.0971 277.891 99.2229 277.891 109.65H281.891ZM286.876 80.6177C290.169 71.3182 295.173 63.9905 301.853 58.5509L299.328 55.4491C292.008 61.4095 286.612 69.3818 283.105 79.2823L286.876 80.6177ZM300.591 59H331.491V55H300.591V59ZM310.641 146.6H321.441V142.6H310.641V146.6ZM322.955 145.906C325.752 142.661 327.948 137.61 329.676 131.006L325.806 129.994C324.133 136.39 322.129 140.739 319.926 143.294L322.955 145.906ZM329.67 131.026C331.52 124.244 332.441 117.116 332.441 109.65H328.441C328.441 116.784 327.561 123.556 325.811 129.974L329.67 131.026ZM332.441 109.65C332.441 102.194 331.572 95.1702 329.824 88.5866L325.958 89.6134C327.609 95.8298 328.441 102.506 328.441 109.65H332.441ZM329.826 88.5939C328.098 81.9896 325.902 76.9386 323.105 73.6941L320.076 76.3059C322.279 78.8613 324.283 83.2103 325.956 89.6061L329.826 88.5939ZM321.591 73H310.641V77H321.591V73ZM309.126 73.6941C306.338 76.9281 304.091 81.9666 302.263 88.5662L306.118 89.6338C307.89 83.2334 309.943 78.8719 312.155 76.3059L309.126 73.6941ZM302.258 88.5866C300.509 95.1702 299.641 102.194 299.641 109.65H303.641C303.641 102.506 304.472 95.8298 306.124 89.6134L302.258 88.5866ZM299.641 109.65C299.641 117.106 300.509 124.225 302.254 130.999L306.127 130.001C304.472 123.575 303.641 116.794 303.641 109.65H299.641ZM302.263 131.034C304.091 137.633 306.338 142.672 309.126 145.906L312.155 143.294C309.943 140.728 307.89 136.367 306.118 129.966L302.263 131.034Z" fill="black" mask="url(#path-3-outside-2_328_190)"/>
</svg>
